<?xml version="1.0" standalone="no"?>
<!DOCTYPE svg PUBLIC "-//W3C//DTD SVG 20010904//EN"
 "http://www.w3.org/TR/2001/REC-SVG-20010904/DTD/svg10.dtd">
<svg version="1.0" xmlns="http://www.w3.org/2000/svg"
 width="1100.000000pt" height="1100.000000pt" viewBox="0 0 1100.000000 1100.000000"
 preserveAspectRatio="xMidYMid meet">
<metadata>
Created by potrace 1.14, written by Peter Selinger 2001-2017
</metadata>
<g transform="translate(0.000000,1100.000000) scale(0.100000,-0.100000)"
fill="#000000" stroke="none">
<path d="M6094 10628 c-3 -5 4 -54 17 -110 l23 -100 -32 -62 c-17 -34 -44 -73
-59 -87 -44 -38 -193 -140 -193 -132 0 5 -4 2 -9 -6 -5 -7 -14 -12 -21 -9 -7
2 5 27 32 66 24 35 49 74 56 88 7 13 20 24 28 24 12 0 12 4 -3 26 -16 25 -20
26 -77 20 -34 -4 -69 -7 -79 -7 -9 0 -15 -4 -13 -8 3 -4 -10 -15 -29 -24 -19
-9 -35 -21 -35 -26 0 -5 -8 -12 -18 -16 -11 -3 -24 -17 -31 -31 -7 -16 -17
-24 -26 -20 -9 3 -12 0 -8 -10 3 -9 -4 -28 -16 -44 -11 -16 -21 -34 -21 -40 0
-6 -9 -29 -21 -52 -11 -22 -22 -48 -24 -57 -1 -9 -10 -32 -18 -51 -12 -26 -16
-30 -16 -14 -1 23 -38 115 -75 188 -29 55 -109 149 -119 139 -4 -3 -7 -1 -7 4
0 23 -94 65 -153 68 -52 4 -59 2 -66 -18 -5 -12 -5 -24 -1 -27 14 -10 39 -68
32 -75 -4 -5 -2 -5 5 -2 13 8 63 -47 63 -69 0 -8 -6 -14 -13 -14 -18 0 -147
77 -167 100 -10 11 -20 20 -24 20 -12 0 -66 64 -66 78 0 7 -7 27 -16 44 -13
25 -14 40 -5 87 6 31 13 70 16 86 3 17 7 40 10 53 5 19 1 22 -26 22 -42 0
-125 -54 -146 -93 -8 -17 -22 -37 -29 -45 -10 -9 -14 -40 -14 -103 0 -95 15
-149 57 -205 13 -17 23 -35 23 -39 0 -5 7 -17 17 -27 9 -10 14 -20 12 -22 -2
-2 -60 -6 -129 -9 -119 -6 -246 -28 -353 -61 -27 -8 -56 -12 -65 -9 -12 3 -13
2 -4 -4 8 -7 -5 -16 -45 -33 -32 -13 -70 -33 -84 -44 -15 -12 -41 -30 -60 -41
-18 -11 -41 -25 -52 -31 -10 -6 -19 -15 -19 -20 -2 -15 -25 -33 -33 -26 -4 4
-5 2 -3 -4 2 -6 -23 -40 -56 -75 -32 -35 -76 -90 -99 -121 -22 -32 -43 -58
-47 -58 -4 0 -13 -13 -20 -29 -6 -16 -21 -31 -32 -34 -11 -3 -17 -10 -14 -15
3 -6 -13 -28 -36 -51 -34 -33 -45 -38 -57 -28 -9 6 -13 7 -9 3 4 -5 3 -15 -3
-23 -6 -7 -8 -13 -3 -13 16 0 -31 -29 -48 -30 -9 0 -18 -5 -20 -11 -2 -6 -19
-13 -38 -14 -19 -2 -35 -4 -35 -5 0 -1 -9 -3 -20 -5 -28 -5 -106 15 -99 26 3
5 -4 9 -15 9 -22 0 -71 47 -71 67 0 7 -5 13 -10 13 -6 0 -9 3 -8 8 1 4 -4 21
-11 37 -17 40 -8 139 17 187 11 21 22 34 26 31 3 -4 6 -1 6 5 0 12 67 77 78
76 4 0 18 5 31 12 16 8 64 12 140 11 110 -2 116 -1 113 18 -6 32 -44 70 -97
95 -69 33 -173 33 -273 1 -60 -20 -83 -34 -129 -79 -30 -30 -65 -74 -77 -96
-12 -23 -26 -48 -31 -56 -11 -17 -13 -30 -21 -121 -11 -121 31 -241 114 -326
59 -60 80 -76 120 -94 18 -8 32 -16 32 -19 0 -8 70 -15 155 -14 82 0 193 31
223 60 7 8 18 14 23 14 8 0 35 22 90 73 10 9 24 17 29 17 6 0 14 9 18 19 4 11
26 39 48 63 23 24 51 62 63 84 l22 39 -7 -50 c-13 -89 -13 -199 0 -261 12 -56
61 -165 79 -172 4 -2 7 -8 7 -14 0 -5 13 -22 30 -38 47 -44 123 -49 133 -9 3
10 2 17 -2 16 -9 -2 -60 51 -54 57 3 2 -6 10 -18 17 -31 16 -49 35 -42 43 4 3
2 6 -4 6 -24 0 -62 130 -63 216 0 79 40 268 61 284 3 3 11 19 17 35 9 27 11
24 12 -35 2 -127 26 -214 76 -269 35 -40 107 -56 180 -41 71 15 75 31 28 117
-88 162 -106 220 -103 333 4 140 23 180 107 220 26 12 54 26 62 31 28 17 65
30 95 35 l30 5 -34 -30 c-19 -16 -42 -42 -52 -58 -22 -32 -24 -100 -5 -125 12
-16 14 -16 36 7 13 14 25 23 28 20 3 -2 13 7 24 20 11 14 23 23 28 20 4 -3 13
2 20 10 7 8 17 12 24 8 6 -3 8 -3 4 2 -9 10 21 34 43 35 9 0 22 7 29 15 8 10
21 13 34 9 12 -4 17 -3 13 2 -10 10 75 32 133 34 87 2 188 -19 215 -46 8 -8
15 -13 15 -9 0 6 48 -23 67 -41 7 -6 9 -14 6 -18 -4 -3 1 -6 10 -6 21 0 121
-119 154 -183 48 -95 41 -249 -13 -312 -13 -15 -24 -31 -24 -34 0 -3 -15 -16
-33 -28 -46 -32 -142 -41 -185 -19 -18 9 -30 21 -27 26 4 6 -1 10 -10 10 -23
0 -55 59 -55 102 0 40 28 98 48 98 6 0 12 5 12 11 0 10 87 7 140 -5 54 -12 69
11 41 62 -24 45 -146 52 -219 14 -23 -12 -42 -18 -42 -14 0 4 -14 -19 -31 -51
-52 -99 -41 -185 35 -274 68 -78 192 -96 303 -43 35 16 76 42 92 59 28 29 100
161 115 211 l7 25 10 -25 c6 -14 12 -29 13 -35 1 -5 15 -35 31 -65 16 -30 36
-67 43 -82 8 -16 19 -28 24 -28 5 0 22 -12 37 -27 56 -56 190 -80 266 -49 18
8 35 12 38 10 2 -3 10 2 17 11 7 8 21 15 32 15 10 0 16 5 13 10 -3 6 1 10 9
10 9 0 15 3 14 8 -1 4 8 28 20 54 28 62 33 105 21 153 -12 44 -62 119 -72 108
-4 -3 -7 -1 -7 5 0 7 -7 12 -15 12 -8 0 -15 3 -15 8 0 4 -14 8 -31 9 -17 1
-36 6 -43 11 -7 6 -39 2 -84 -11 l-73 -19 3 -37 c3 -40 1 -39 123 -27 64 6 86
0 109 -30 30 -42 32 -95 4 -144 -32 -58 -66 -82 -125 -87 -53 -5 -129 16 -126
35 2 6 -4 9 -11 6 -9 -4 -16 3 -18 18 -2 13 -9 22 -16 20 -7 -1 -24 22 -37 51
-26 56 -34 132 -22 200 9 49 51 132 77 150 11 7 17 17 13 20 -3 4 -1 7 6 7 7
0 10 4 7 8 -2 4 7 17 20 27 14 11 37 33 52 49 24 25 69 54 89 58 5 0 13 7 18
13 26 32 158 54 240 41 120 -19 196 -46 224 -80 8 -9 20 -16 27 -16 8 0 14 -4
14 -10 0 -6 4 -9 9 -8 5 2 18 -8 30 -21 12 -13 21 -20 21 -15 0 5 6 2 13 -7
18 -23 44 -30 57 -14 13 16 5 91 -12 113 -6 6 -7 12 -3 12 8 0 -26 32 -59 56
-11 7 -17 16 -14 19 9 9 100 -19 105 -32 3 -7 11 -13 19 -13 16 0 56 -20 65
-33 3 -5 8 -7 10 -6 7 6 49 -28 42 -34 -3 -4 -2 -7 4 -7 35 0 52 -153 29 -265
-19 -90 -62 -189 -78 -179 -7 4 -8 2 -4 -5 4 -6 -2 -25 -14 -41 -12 -16 -24
-45 -27 -65 -5 -31 -3 -36 23 -46 59 -23 120 -23 169 1 26 12 49 30 52 39 3 9
12 23 20 32 8 9 16 29 19 45 3 16 8 31 12 34 7 5 8 11 12 138 2 39 4 72 5 72
7 0 45 -82 45 -95 0 -9 4 -23 9 -33 27 -51 41 -184 29 -279 -7 -62 -54 -183
-71 -183 -11 0 -61 -51 -82 -84 -18 -27 -18 -29 -1 -42 26 -18 74 -7 114 28
18 15 29 28 25 28 -4 0 -1 6 7 13 23 18 78 145 85 197 11 78 12 128 4 190 -12
83 -19 121 -25 134 -3 6 2 2 10 -8 9 -11 16 -24 16 -29 0 -5 8 -19 18 -32 9
-12 24 -33 32 -45 8 -13 23 -32 33 -42 9 -10 17 -20 17 -23 0 -12 72 -87 116
-120 14 -11 35 -28 45 -37 11 -10 27 -18 37 -18 10 0 22 -4 28 -9 22 -19 115
-36 199 -35 75 1 98 6 140 27 27 14 54 23 59 20 5 -3 6 -1 2 5 -4 7 -1 12 8
12 21 0 125 108 142 148 8 17 19 32 25 32 5 0 8 4 5 9 -3 5 1 28 10 52 8 24
17 73 18 109 2 62 -1 75 -46 189 -12 33 -79 107 -132 146 -14 11 -23 22 -21
25 2 3 -4 6 -13 7 -9 1 -39 11 -67 23 -79 34 -165 40 -233 17 -31 -10 -59 -23
-60 -28 -2 -5 -8 -7 -13 -3 -5 3 -15 -8 -21 -23 -7 -15 -21 -37 -31 -48 -10
-11 -13 -21 -8 -23 5 -2 7 -11 4 -20 -4 -14 -3 -15 6 -2 15 21 211 24 261 3
52 -21 128 -102 135 -143 0 -3 7 -22 14 -43 21 -62 -5 -186 -38 -179 -7 1 -10
-2 -6 -7 8 -14 -35 -61 -55 -61 -9 0 -21 -5 -28 -12 -7 -7 -42 -13 -80 -14
-52 -2 -78 3 -119 22 -29 13 -53 28 -53 34 0 5 -7 10 -15 10 -8 0 -15 5 -15
11 0 5 -4 7 -10 4 -5 -3 -10 -3 -10 2 0 4 -14 22 -30 40 -17 18 -30 35 -30 38
0 4 -12 19 -27 35 -16 15 -33 34 -38 41 -6 8 -24 32 -41 54 -18 22 -33 45 -34
50 -7 34 -164 205 -212 231 -16 8 -28 19 -28 25 0 6 -4 8 -9 5 -5 -3 -19 4
-33 17 -13 12 -28 22 -33 22 -9 1 -67 26 -109 47 -67 35 -283 76 -435 83 -63
3 -116 6 -117 8 -2 1 19 35 46 75 27 40 54 92 61 115 15 56 7 163 -16 211 -10
21 -18 44 -18 52 0 8 -7 14 -14 14 -8 0 -11 5 -8 10 3 6 -1 10 -9 10 -9 0 -24
8 -34 18 -23 23 -100 44 -108 30z"/>
<path d="M7245 9650 c-3 -5 -1 -10 4 -10 6 0 11 5 11 10 0 6 -2 10 -4 10 -3 0
-8 -4 -11 -10z"/>
<path d="M2822 9072 c-59 -7 -124 -22 -146 -32 -22 -11 -43 -17 -47 -15 -3 3
-12 -2 -19 -10 -7 -8 -19 -15 -26 -15 -8 0 -31 -11 -52 -23 -81 -51 -97 -61
-99 -56 -1 2 -8 -5 -16 -15 -9 -12 -19 -16 -27 -11 -8 5 -11 4 -7 -2 4 -6 -8
-26 -26 -45 -67 -70 -94 -107 -124 -174 -41 -91 -51 -130 -58 -244 -6 -101
-21 -182 -38 -215 -6 -11 -12 -22 -12 -25 -2 -17 -40 -108 -50 -120 -7 -8 -15
-27 -19 -42 -3 -15 -13 -33 -21 -41 -7 -8 -17 -26 -21 -41 -3 -14 -10 -29 -15
-32 -5 -3 -16 -20 -23 -37 -8 -18 -21 -41 -30 -52 -9 -11 -27 -36 -40 -55 -12
-19 -28 -34 -35 -32 -7 1 -10 -2 -7 -7 6 -9 -70 -91 -83 -91 -4 0 -14 -11 -21
-25 -8 -14 -24 -28 -37 -31 -12 -4 -21 -9 -19 -13 3 -4 -11 -22 -30 -40 -18
-18 -31 -37 -28 -42 3 -5 1 -9 -5 -9 -12 0 -32 -66 -25 -85 8 -21 23 -23 98
-14 38 5 73 6 79 2 5 -3 7 -1 4 4 -6 10 22 23 52 23 11 0 11 -3 1 -15 -7 -8
-16 -13 -20 -10 -4 3 -10 -4 -13 -15 -3 -11 -17 -24 -31 -29 -14 -6 -33 -22
-43 -37 -9 -15 -29 -32 -43 -38 -34 -15 -130 -119 -168 -181 -16 -27 -33 -70
-37 -95 -4 -25 -13 -48 -19 -52 -7 -5 -7 -8 -1 -8 6 0 9 -14 7 -33 -6 -52 14
-63 91 -46 34 7 64 14 67 14 22 5 90 39 90 45 0 9 30 22 40 18 5 -2 44 29 76
60 7 6 15 12 18 12 3 0 17 11 32 25 14 13 31 22 37 18 5 -3 7 -1 4 4 -4 6 19
38 51 70 67 70 120 141 151 206 36 74 37 67 15 -83 -8 -59 -26 -133 -39 -165
-6 -16 -18 -48 -25 -70 -7 -22 -17 -46 -23 -54 -6 -7 -12 -20 -13 -28 -2 -8
-13 -31 -26 -51 -13 -21 -29 -49 -37 -64 -16 -32 -132 -177 -187 -234 -164
-170 -496 -251 -754 -183 -55 15 -200 87 -200 100 0 5 -20 18 -45 30 -25 12
-45 25 -45 30 0 4 -16 19 -35 32 -19 13 -32 27 -28 30 3 4 0 7 -9 7 -20 0 -64
39 -60 54 2 6 1 8 -3 4 -4 -4 -18 -2 -32 3 -39 15 -52 -2 -42 -54 9 -51 52
-151 68 -161 6 -4 11 -12 11 -17 0 -23 -55 35 -107 112 -91 135 -128 252 -124
389 1 30 15 122 32 204 30 147 34 199 16 224 -7 9 -13 9 -23 1 -7 -6 -18 -8
-23 -4 -6 3 -17 -10 -25 -30 -9 -20 -20 -34 -26 -30 -5 3 -10 0 -10 -8 0 -8
-9 -22 -20 -32 -11 -10 -18 -20 -15 -23 2 -3 -4 -17 -15 -32 -17 -24 -37 -66
-46 -95 -32 -107 -37 -140 -36 -235 0 -85 5 -118 25 -172 13 -37 21 -65 16
-63 -17 11 -67 165 -79 244 -14 90 -9 223 11 281 73 217 187 301 369 268 51
-9 131 -46 160 -73 14 -13 47 -44 74 -69 27 -25 53 -46 57 -46 5 0 13 -9 19
-20 6 -11 15 -18 19 -15 5 3 11 -2 15 -10 3 -8 17 -15 30 -15 21 0 26 6 32 36
8 42 0 106 -20 163 -12 37 -12 40 1 29 57 -47 93 -218 58 -272 -10 -15 -15
-29 -12 -33 3 -3 -6 -21 -21 -41 -49 -64 -142 -89 -217 -58 -35 15 -58 48 -70
104 -5 23 -14 34 -32 38 -34 9 -46 -7 -46 -61 0 -57 40 -119 98 -149 82 -42
227 -28 288 29 12 11 25 19 29 17 5 -1 8 5 8 13 0 7 6 18 13 22 56 35 75 193
37 310 -36 112 -108 192 -220 245 -122 58 -300 49 -440 -21 -30 -16 -67 -33
-82 -39 -16 -7 -28 -19 -28 -28 0 -10 -2 -15 -5 -12 -7 7 -84 -71 -121 -123
-124 -179 -130 -476 -13 -721 15 -32 25 -58 21 -58 -3 0 2 -6 13 -13 11 -9 15
-19 10 -27 -5 -8 -4 -11 3 -6 6 4 16 -4 23 -16 7 -13 27 -39 46 -58 18 -19 35
-42 38 -51 3 -9 16 -21 29 -27 13 -6 27 -20 31 -31 3 -12 13 -21 21 -21 8 0
14 -5 14 -12 0 -6 3 -9 6 -5 3 3 17 -6 30 -20 13 -14 24 -22 24 -18 0 4 6 3
13 -3 13 -11 126 -69 139 -71 4 -1 27 -9 50 -17 113 -40 328 -57 448 -34 36 6
110 23 165 36 107 26 128 29 107 15 -8 -4 -14 -12 -13 -17 0 -5 -11 -21 -25
-36 -13 -15 -24 -34 -24 -42 0 -7 -9 -25 -21 -40 -11 -14 -18 -26 -15 -26 4 0
-1 -17 -10 -37 -25 -58 -22 -201 6 -282 23 -66 28 -74 66 -116 12 -13 19 -26
16 -29 -3 -3 1 -6 9 -6 9 0 24 -8 35 -17 11 -10 30 -24 42 -30 19 -12 37 -15
128 -27 17 -2 53 0 79 5 50 9 135 47 135 60 0 9 40 24 53 21 5 -1 6 2 3 7 -3
5 3 35 14 66 11 32 20 72 20 90 0 45 -26 116 -55 147 -13 14 -21 29 -18 32 4
3 -3 6 -15 6 -12 0 -22 5 -22 10 0 6 -24 10 -54 10 -47 0 -57 -4 -75 -26 -12
-15 -21 -31 -21 -36 0 -5 17 -26 38 -46 38 -37 44 -60 28 -108 -3 -12 -18 -26
-32 -32 -31 -15 -104 -16 -104 -1 0 5 -4 8 -9 5 -8 -6 -86 58 -86 71 -1 5 -9
23 -19 42 -23 43 -19 165 8 226 47 107 96 181 111 167 5 -4 5 -2 1 5 -8 15
102 125 117 116 6 -3 7 -1 3 5 -4 7 -1 12 9 12 9 0 14 4 10 9 -5 9 12 26 28
26 4 0 7 3 7 8 -1 13 103 106 112 101 4 -3 8 0 8 6 0 6 12 23 28 38 63 65 154
170 152 177 -1 4 3 11 8 14 5 3 31 47 57 96 26 50 52 96 57 103 6 6 8 12 4 12
-3 0 3 24 14 54 11 29 32 109 46 177 26 121 26 132 25 502 0 255 3 377 10 377
5 0 8 4 4 9 -3 5 -1 12 5 16 5 3 14 -4 19 -17 5 -13 18 -31 30 -42 11 -10 18
-24 14 -30 -3 -6 -2 -8 2 -3 5 4 19 -3 32 -15 13 -12 23 -18 23 -15 0 4 19 -4
41 -19 63 -40 177 -60 259 -45 64 12 130 31 140 41 22 23 73 50 82 44 6 -4 8
-3 5 3 -4 6 2 21 13 34 30 37 35 44 39 59 2 8 9 33 16 56 7 22 11 66 8 100
-13 172 -167 279 -310 214 -24 -10 -51 -33 -61 -49 -10 -17 -21 -29 -23 -26
-8 7 -14 -100 -8 -140 1 -8 6 -12 10 -9 4 2 9 -1 11 -7 2 -6 19 -11 38 -12
l35 -2 1 65 c0 98 0 98 42 109 59 16 103 -1 146 -56 20 -25 36 -56 37 -67 0
-12 2 -32 3 -46 4 -32 -20 -115 -38 -132 -29 -28 -67 -58 -73 -58 -3 0 -14 -7
-24 -16 -30 -27 -171 -31 -246 -6 -70 23 -157 78 -147 93 3 5 0 8 -8 7 -7 -2
-12 5 -12 14 1 10 -2 16 -6 13 -14 -9 -52 54 -77 128 -18 54 -24 93 -24 159 0
102 11 150 52 235 26 53 106 153 123 153 7 0 -36 -74 -46 -78 -5 -2 -6 -7 -3
-12 3 -4 -1 -26 -9 -48 -25 -70 -30 -162 -11 -212 9 -25 17 -51 17 -57 1 -7 5
-13 10 -13 5 0 21 -9 36 -19 15 -11 41 -22 59 -26 30 -6 32 -4 37 27 3 18 10
67 16 108 11 73 66 214 80 205 4 -2 7 -18 8 -35 1 -56 21 -97 52 -110 16 -7
28 -16 25 -20 -2 -4 6 -5 19 -3 16 3 30 18 42 45 10 23 27 52 38 66 11 14 21
31 22 38 7 45 124 153 213 197 56 27 77 32 162 35 116 5 174 -11 235 -66 48
-42 79 -55 103 -42 10 5 22 6 27 2 5 -4 6 -3 2 2 -4 5 -3 17 3 27 7 15 6 17
-6 13 -13 -6 -20 6 -16 29 0 4 -3 7 -8 7 -5 0 -28 16 -52 36 -23 19 -58 43
-78 53 -92 46 -146 76 -149 83 -2 5 -8 5 -13 2 -6 -3 -20 1 -32 8 -22 14 -148
36 -240 41 -26 1 -95 -4 -155 -11z"/>
<path d="M7897 9067 c-31 -8 -59 -11 -62 -9 -2 3 -10 0 -17 -5 -7 -6 -35 -18
-63 -27 -27 -9 -74 -30 -104 -46 -29 -16 -58 -27 -64 -23 -5 3 -7 2 -4 -4 4
-5 -6 -16 -21 -24 -15 -7 -42 -28 -60 -46 -18 -19 -36 -31 -40 -29 -4 2 -8
-14 -9 -35 -2 -38 -2 -39 30 -39 19 0 42 8 55 20 12 11 26 20 31 20 6 0 14 6
18 13 21 34 129 65 213 61 68 -4 193 -43 187 -58 -3 -7 6 -13 21 -14 14 -1 36
-9 48 -16 43 -29 113 -109 119 -138 4 -15 10 -28 14 -28 13 0 54 -88 48 -104
-7 -18 33 -29 65 -17 50 19 72 51 82 114 4 33 21 19 43 -35 20 -50 55 -195 52
-215 -4 -23 2 -53 10 -49 5 4 11 0 14 -6 4 -10 7 -11 18 0 15 14 33 16 24 2
-3 -6 1 -7 9 -4 9 3 14 10 11 14 -3 4 2 13 10 20 8 7 15 9 15 6 0 -14 25 20
43 57 33 73 17 223 -34 325 -22 43 -15 57 12 22 10 -14 27 -34 37 -46 28 -30
72 -121 88 -179 20 -72 17 -188 -7 -270 -11 -38 -21 -75 -22 -80 -4 -15 -37
-61 -37 -51 0 5 -6 3 -13 -3 -8 -6 -18 -7 -23 -3 -4 4 -2 -1 5 -10 11 -15 11
-19 -3 -24 -9 -3 -13 -10 -10 -15 3 -5 -8 -15 -25 -22 -17 -7 -28 -16 -24 -20
3 -4 -1 -7 -10 -7 -10 0 -17 -4 -17 -10 0 -5 -9 -10 -20 -10 -11 0 -20 -4 -20
-9 0 -5 -12 -11 -27 -14 -16 -4 -46 -10 -68 -14 -73 -15 -225 18 -225 49 0 4
-3 7 -7 5 -10 -3 -53 40 -53 53 0 6 -9 27 -20 47 -21 40 -26 96 -11 135 5 13
9 26 10 31 3 16 37 43 50 39 9 -4 12 -1 7 6 -10 17 50 41 87 36 67 -8 101 -65
72 -120 -15 -29 -5 -64 18 -64 60 1 90 52 74 129 -29 146 -223 190 -331 75
-59 -64 -90 -186 -67 -270 13 -48 80 -154 97 -154 20 0 64 -41 57 -53 -4 -7 1
-6 10 2 14 11 18 11 23 -2 3 -9 13 -15 22 -15 9 1 44 -5 76 -11 72 -16 156 -8
235 21 43 16 71 37 124 92 37 39 67 74 67 78 0 5 4 8 10 8 5 0 9 -135 10 -348
0 -352 7 -461 36 -607 9 -44 17 -84 18 -90 1 -5 5 -15 8 -21 4 -6 9 -22 12
-37 2 -15 12 -37 20 -49 9 -12 16 -28 16 -35 0 -7 23 -51 50 -97 28 -47 49
-91 48 -98 -2 -7 2 -12 9 -11 6 1 23 -14 39 -35 34 -46 281 -292 293 -292 13
0 184 -186 196 -213 5 -12 15 -28 22 -35 7 -7 13 -18 13 -23 0 -20 2 -25 18
-43 9 -10 16 -20 14 -22 -2 -2 2 -29 8 -59 6 -31 8 -75 4 -102 -8 -56 -45
-129 -63 -125 -7 1 -10 -2 -7 -6 10 -17 -33 -44 -76 -49 -47 -5 -103 11 -93
27 4 6 1 9 -5 8 -21 -5 -38 35 -29 68 8 29 51 61 74 55 5 -2 7 1 3 5 -4 4 -3
12 2 19 13 16 -15 54 -54 70 -31 13 -82 10 -92 -6 -3 -5 -14 -9 -26 -9 -11 0
-22 -8 -25 -20 -3 -11 -9 -20 -13 -20 -4 0 -18 -21 -30 -47 -31 -67 -25 -159
16 -225 16 -26 33 -48 37 -48 8 0 69 -41 77 -52 3 -3 33 -11 66 -18 48 -10 78
-10 133 0 39 6 71 15 71 20 0 4 13 13 30 20 39 16 119 96 135 135 26 65 37
131 32 200 -6 75 -33 191 -52 215 -6 8 -17 26 -23 40 -7 14 -19 36 -27 50 -8
13 -12 26 -11 28 7 6 116 -30 112 -37 -3 -4 9 -8 27 -9 18 0 70 -6 117 -12
100 -12 221 -13 310 0 35 5 67 7 72 4 4 -3 8 -1 8 3 0 5 21 14 48 22 80 22
182 67 182 81 0 4 10 10 23 14 13 3 46 26 73 51 27 24 54 45 61 45 6 0 22 15
34 33 13 17 29 36 36 40 7 4 13 15 13 22 0 8 4 15 9 15 5 0 20 17 32 38 13 20
27 39 31 40 4 2 8 8 8 13 0 4 11 33 25 62 91 199 109 412 52 602 -9 28 -68
136 -88 161 -54 64 -127 129 -158 139 -11 3 -27 12 -33 18 -7 7 -47 23 -88 37
-63 21 -94 25 -195 25 -118 0 -121 -1 -190 -36 -66 -34 -94 -60 -185 -176 -6
-7 -11 -20 -13 -30 -1 -10 -6 -24 -11 -31 -4 -7 -10 -49 -13 -93 -8 -112 9
-177 62 -234 22 -25 46 -45 53 -45 7 0 12 -4 12 -9 0 -22 102 -44 179 -38 42
3 77 11 79 16 2 6 9 11 15 11 16 0 50 38 71 78 11 21 16 50 14 80 -3 40 -6 47
-26 50 -29 4 -52 -14 -52 -42 0 -39 -35 -90 -71 -103 -114 -40 -231 32 -260
162 -10 43 -9 61 5 109 14 47 20 56 31 46 9 -7 15 -36 17 -73 3 -56 5 -62 26
-65 17 -3 32 6 51 27 15 17 36 31 45 31 9 0 15 4 12 9 -3 4 3 16 14 26 11 10
20 15 20 10 0 -4 9 4 20 18 13 16 27 24 36 20 9 -3 14 0 12 8 -2 7 3 14 10 15
6 1 17 2 23 3 5 0 7 6 4 11 -3 6 26 25 66 43 90 42 167 48 234 18 53 -23 99
-66 89 -83 -4 -6 -3 -8 3 -5 18 11 83 -78 90 -123 1 -8 11 -40 22 -70 35 -95
27 -251 -21 -383 -23 -65 -35 -70 -18 -8 24 90 14 248 -22 346 -13 37 -69 148
-77 155 -3 3 -12 17 -20 32 -8 15 -17 26 -20 25 -11 -4 -50 41 -43 49 4 4 1 4
-6 0 -7 -4 -19 -3 -27 4 -11 9 -16 7 -24 -8 -6 -11 -8 -21 -6 -24 2 -2 5 -20
6 -39 1 -18 5 -43 9 -54 23 -58 48 -264 44 -360 -4 -120 -53 -285 -91 -308 -7
-5 -11 -12 -8 -17 7 -11 -54 -62 -66 -54 -13 7 -11 19 7 62 32 74 19 126 -25
102 -10 -5 -21 -6 -25 -3 -3 3 -6 1 -6 -5 0 -7 -5 -12 -10 -12 -6 0 -20 -9
-32 -20 -12 -11 -28 -20 -37 -20 -8 0 -11 -3 -8 -7 15 -14 -124 -120 -142
-108 -6 3 -9 0 -6 -7 3 -8 -8 -21 -25 -31 -16 -10 -30 -15 -30 -10 0 4 -4 3
-8 -3 -4 -5 -23 -17 -42 -26 -92 -43 -192 -62 -305 -59 -67 1 -224 28 -240 40
-5 5 -25 11 -42 14 -18 4 -52 15 -75 26 -24 10 -53 22 -66 26 -12 3 -20 11
-17 16 4 5 1 9 -5 9 -6 0 -8 5 -4 11 4 7 0 9 -13 5 -15 -5 -35 9 -84 56 -36
35 -80 85 -99 113 -19 27 -41 56 -49 65 -8 8 -24 35 -35 60 -12 25 -29 56 -38
70 -18 27 -77 171 -81 198 -1 9 -6 23 -10 30 -5 6 -5 17 -2 22 3 6 2 10 -3 10
-11 0 -45 177 -40 209 2 17 10 8 38 -45 19 -38 34 -71 32 -76 -1 -4 3 -8 9 -8
5 0 7 -5 4 -10 -4 -6 -2 -9 3 -8 11 4 118 -121 114 -134 -1 -5 3 -6 9 -2 7 4
17 1 23 -7 14 -18 142 -112 176 -129 14 -7 27 -16 30 -20 8 -12 161 -59 200
-62 l35 -3 -1 77 c-1 63 -7 88 -32 143 -18 37 -42 75 -54 85 -13 11 -19 19
-15 20 9 0 -39 50 -48 50 -10 0 -38 30 -28 30 4 0 -6 7 -22 15 -17 8 -48 31
-70 51 -22 20 -51 46 -65 58 -45 38 -44 45 4 31 75 -23 178 -29 200 -12 18 14
18 16 -15 82 -19 37 -47 77 -62 89 -51 39 -227 216 -227 229 0 7 -13 27 -30
45 -16 18 -30 39 -30 46 0 8 -7 19 -15 26 -8 7 -13 16 -10 20 3 4 -6 24 -20
44 -14 20 -25 40 -25 43 0 3 -9 24 -19 47 -67 145 -102 266 -107 375 -2 47 -6
103 -10 123 -3 21 -5 39 -4 40 5 9 -78 158 -104 186 -82 90 -125 130 -144 137
-12 3 -22 13 -22 21 0 8 -5 12 -10 9 -6 -3 -22 2 -38 12 -59 39 -175 86 -242
98 -78 13 -296 15 -353 2z"/>
<path d="M5305 9052 c-6 -5 -68 -15 -140 -22 -71 -6 -148 -15 -170 -20 -22 -5
-62 -11 -88 -15 -110 -14 -385 -78 -497 -115 -30 -10 -66 -20 -80 -22 -14 -1
-27 -5 -30 -8 -7 -8 -259 -110 -271 -110 -6 0 -17 -7 -26 -15 -8 -9 -28 -19
-44 -22 -16 -3 -29 -9 -29 -14 0 -5 -9 -9 -20 -9 -11 0 -20 -4 -20 -10 0 -5
-9 -10 -20 -10 -10 0 -23 -6 -27 -12 -13 -21 -92 -60 -105 -52 -7 4 -10 4 -6
-1 9 -9 -24 -36 -74 -60 -21 -9 -38 -21 -38 -26 0 -5 -9 -9 -20 -9 -11 0 -20
-5 -20 -11 0 -5 -15 -16 -32 -24 -18 -8 -44 -24 -58 -37 -29 -26 -87 -68 -94
-68 -2 0 -15 -9 -28 -20 -12 -11 -52 -42 -88 -70 -36 -28 -87 -70 -114 -93
-27 -23 -53 -41 -57 -39 -5 1 -8 -4 -7 -10 2 -7 -3 -12 -10 -10 -6 1 -11 -3
-10 -10 2 -7 -6 -12 -17 -13 -11 0 -21 -6 -21 -12 -1 -7 -2 -18 -3 -24 0 -5
-5 -7 -11 -4 -5 3 -10 1 -10 -5 0 -14 -58 -70 -71 -70 -5 0 -8 -6 -7 -12 2 -7
-6 -13 -17 -13 -11 0 -21 -6 -21 -13 -1 -6 -2 -16 -3 -22 0 -5 -8 -10 -16 -10
-8 0 -14 -4 -13 -8 2 -5 -19 -35 -47 -66 -82 -95 -110 -129 -135 -166 -13 -19
-28 -39 -34 -45 -7 -5 -22 -27 -35 -47 -12 -21 -27 -38 -32 -38 -6 0 -7 -4 -4
-10 3 -5 2 -10 -3 -10 -4 0 -19 -19 -32 -42 -13 -24 -38 -63 -54 -88 -17 -25
-42 -69 -56 -97 -14 -29 -28 -53 -32 -53 -5 0 -8 -6 -8 -13 0 -7 -8 -22 -17
-33 -10 -11 -19 -26 -21 -34 -4 -16 -84 -182 -92 -190 -3 -3 -6 -11 -8 -18 -1
-7 -20 -55 -42 -106 -22 -51 -40 -98 -40 -104 0 -5 -7 -23 -15 -38 -8 -16 -15
-36 -15 -44 0 -9 -5 -21 -12 -28 -6 -6 -13 -20 -14 -29 -1 -10 -20 -83 -43
-163 -23 -80 -46 -163 -51 -185 -4 -22 -11 -51 -14 -65 -11 -47 -45 -295 -56
-408 -21 -224 -5 -604 34 -832 4 -19 11 -62 17 -95 16 -97 85 -369 108 -429 7
-16 9 -31 6 -34 -2 -3 -1 -10 5 -16 12 -16 72 -177 73 -196 0 -8 5 -22 12 -30
6 -8 18 -31 25 -50 25 -68 193 -400 201 -400 5 0 9 -6 9 -12 0 -7 9 -24 20
-38 11 -14 20 -35 20 -47 0 -12 8 -24 19 -28 10 -3 22 -17 25 -30 4 -14 11
-25 16 -25 5 0 6 -7 3 -17 -4 -10 -2 -14 4 -10 5 4 15 -5 21 -18 7 -14 16 -25
22 -25 6 0 8 -4 5 -10 -3 -5 -2 -10 2 -10 5 0 16 -12 26 -28 9 -15 34 -47 57
-72 22 -25 40 -48 40 -51 0 -3 10 -18 23 -32 84 -96 112 -132 109 -139 -1 -5
1 -7 6 -4 5 3 15 -6 22 -19 7 -14 19 -25 27 -25 7 0 13 -4 13 -8 0 -5 20 -28
44 -52 25 -24 42 -48 40 -52 -3 -4 1 -8 9 -8 20 0 41 -26 27 -33 -6 -3 -5 -4
2 -3 15 3 94 -64 91 -76 -2 -5 0 -7 5 -6 11 4 192 -149 185 -156 -4 -3 1 -6 9
-6 9 0 30 -14 48 -30 18 -17 36 -30 41 -30 5 0 23 -12 40 -28 17 -15 36 -26
41 -24 4 1 11 -5 14 -13 4 -8 11 -15 18 -15 6 0 35 -16 65 -35 29 -19 56 -35
61 -35 4 0 10 -6 13 -14 3 -7 16 -16 30 -19 21 -6 59 -26 145 -78 15 -9 29
-16 32 -15 7 0 104 -48 110 -55 3 -3 17 -9 32 -12 15 -4 34 -14 43 -23 9 -9
19 -14 22 -10 4 3 16 0 27 -8 12 -7 36 -17 54 -21 18 -4 36 -13 39 -21 3 -8
16 -14 29 -14 13 0 70 -15 126 -34 57 -18 118 -37 136 -41 17 -3 32 -11 32
-17 0 -6 3 -9 6 -6 3 3 31 0 62 -8 31 -8 71 -16 87 -19 48 -7 89 -17 99 -23 5
-3 21 -6 35 -8 14 -1 73 -9 131 -17 101 -15 125 -18 270 -33 105 -11 516 -8
630 5 58 7 161 21 230 32 69 11 139 23 155 25 31 4 86 18 141 35 17 5 39 9 50
9 11 0 25 5 30 10 6 6 25 12 42 13 18 1 32 5 32 10 0 4 14 7 32 7 17 0 39 6
47 14 9 7 66 30 126 51 61 21 118 44 129 51 10 7 25 10 33 7 7 -3 22 2 31 11
23 23 199 106 223 106 11 0 18 4 15 9 -3 5 24 24 61 42 37 19 73 41 80 49 7 8
13 11 13 7 0 -4 28 12 63 36 34 24 68 42 76 39 9 -3 11 0 6 7 -4 8 4 16 24 24
17 6 31 15 31 18 0 4 17 18 37 30 21 13 45 31 55 41 10 10 22 18 27 18 5 0 26
16 46 35 20 20 41 33 47 29 6 -4 8 -3 5 3 -8 13 170 160 187 155 6 -2 8 0 3 4
-4 4 20 35 52 68 158 162 220 228 220 232 -1 6 42 59 98 122 18 20 33 43 33
50 0 6 4 12 8 12 5 0 29 29 53 65 24 36 47 65 51 65 5 0 8 7 8 16 0 8 5 12 10
9 6 -4 9 -3 8 2 -3 13 13 53 22 53 4 0 11 11 14 25 4 14 11 25 16 25 6 0 10 5
10 12 0 6 7 19 15 28 8 9 28 41 44 71 59 111 165 324 167 336 1 7 12 34 24 60
37 80 47 105 66 168 10 33 24 67 31 75 6 9 12 24 11 35 0 11 13 68 30 128 52
181 86 364 119 647 12 95 8 530 -6 650 -19 181 -77 502 -101 565 -5 13 -7 25
-4 27 2 3 -2 18 -11 34 -8 16 -15 35 -15 42 0 8 -18 64 -39 125 -22 62 -42
127 -46 145 -4 17 -11 32 -16 32 -5 0 -9 9 -9 19 0 11 -4 22 -9 26 -5 3 -12
19 -16 36 -4 17 -13 42 -21 57 -8 15 -14 33 -14 40 0 6 -4 12 -8 12 -8 0 -62
111 -62 128 0 5 -6 14 -13 20 -6 6 -27 41 -46 79 -19 37 -41 76 -49 86 -8 9
-11 17 -6 17 5 0 4 4 -1 8 -18 12 -80 116 -77 128 1 6 -7 14 -18 17 -11 3 -20
12 -20 21 0 9 -4 16 -9 16 -5 0 -14 13 -21 29 -6 16 -18 32 -26 35 -8 3 -14
12 -14 20 0 8 -6 19 -14 23 -8 4 -34 35 -60 68 -25 33 -70 87 -100 120 -31 33
-56 66 -56 74 0 8 -3 12 -6 8 -8 -7 -34 17 -34 32 0 6 -4 11 -8 11 -11 0 -132
120 -132 131 0 5 -8 9 -17 10 -14 0 -13 2 5 9 12 5 22 12 22 15 0 4 -5 3 -10
0 -6 -4 -18 -1 -27 7 -12 9 -15 9 -9 1 10 -17 -2 -16 -19 1 -8 7 -11 17 -7 21
4 5 2 5 -4 2 -6 -4 -35 16 -63 43 -29 28 -56 50 -59 50 -4 0 -18 10 -32 23
-14 12 -45 38 -70 57 -25 19 -47 37 -50 41 -3 3 -15 12 -28 18 -15 8 -21 18
-18 28 5 13 4 14 -9 3 -12 -10 -16 -9 -21 4 -3 9 -12 16 -20 16 -8 0 -14 7
-14 15 0 8 -6 12 -13 9 -8 -3 -20 2 -27 11 -7 8 -18 15 -25 15 -7 0 -15 7 -19
15 -3 8 -12 15 -20 15 -8 0 -16 3 -18 8 -1 4 -25 19 -53 33 -27 15 -49 31 -47
38 2 10 -11 15 -30 12 -4 0 -22 8 -40 19 -18 11 -41 23 -50 26 -10 4 -18 10
-18 15 0 5 -5 9 -12 9 -10 0 -107 46 -148 70 -8 5 -37 18 -65 30 -27 12 -58
26 -67 31 -10 5 -26 9 -35 9 -16 0 -16 2 -3 11 12 8 10 9 -8 4 -14 -4 -32 0
-47 9 -14 9 -25 14 -25 11 0 -3 -9 -1 -20 5 -10 6 -70 26 -132 45 -62 20 -120
38 -128 42 -8 3 -22 7 -30 9 -8 2 -62 15 -120 29 -124 31 -187 42 -420 70 -58
7 -202 13 -320 14 -118 1 -224 4 -235 7 -11 3 -25 1 -30 -4z m562 -157 c68 -8
140 -17 160 -20 85 -14 199 -36 213 -42 8 -3 24 -7 35 -8 62 -9 284 -77 435
-134 30 -12 56 -21 58 -21 2 0 0 -4 -3 -10 -3 -5 0 -7 8 -4 44 16 641 -306
622 -336 -3 -6 1 -7 9 -4 9 3 16 1 16 -6 0 -6 4 -9 9 -5 6 3 13 -1 18 -9 4 -8
12 -14 16 -14 16 1 126 -85 121 -93 -3 -5 4 -9 15 -9 12 0 21 -3 21 -8 0 -4
18 -18 39 -32 22 -13 38 -28 35 -32 -3 -4 1 -8 9 -8 8 0 17 -7 21 -15 3 -8 17
-20 31 -27 14 -6 25 -16 25 -22 0 -6 10 -16 23 -21 12 -6 21 -16 19 -23 -1 -7
2 -11 6 -10 11 4 82 -59 75 -65 -2 -3 5 -11 18 -17 24 -14 139 -131 139 -143
0 -4 16 -21 35 -38 19 -17 35 -36 35 -42 0 -7 17 -27 39 -47 21 -19 38 -37 38
-40 0 -14 41 -69 46 -63 4 3 7 1 7 -6 0 -7 11 -26 25 -43 14 -16 25 -36 25
-44 0 -8 4 -14 10 -14 5 0 16 -16 24 -35 8 -19 20 -35 25 -35 6 0 11 -7 11
-15 0 -8 4 -15 9 -15 5 0 13 -10 16 -22 4 -13 15 -32 25 -43 10 -11 33 -50 52
-86 18 -36 56 -110 84 -165 47 -92 98 -209 106 -244 2 -8 6 -17 9 -20 5 -5 53
-131 59 -155 1 -5 4 -14 6 -20 33 -104 44 -142 44 -160 0 -11 4 -25 9 -31 5
-5 11 -22 14 -39 2 -16 7 -37 10 -45 11 -27 45 -212 62 -335 35 -245 39 -637
10 -840 -2 -16 -7 -50 -10 -75 -14 -123 -71 -396 -85 -415 -5 -5 -11 -28 -14
-50 -6 -42 -35 -135 -67 -219 -11 -27 -19 -55 -19 -62 0 -8 -5 -14 -11 -14 -5
0 -8 -4 -5 -8 5 -8 -12 -52 -45 -114 -10 -20 -19 -41 -19 -47 0 -17 -86 -191
-105 -211 -10 -11 -15 -20 -12 -20 4 0 -3 -17 -15 -38 -12 -20 -28 -50 -36
-65 -8 -16 -20 -31 -28 -34 -8 -3 -14 -12 -14 -20 0 -16 -34 -78 -57 -103 -8
-8 -35 -46 -60 -85 -25 -38 -50 -72 -54 -73 -5 -2 -9 -10 -9 -18 0 -8 -4 -14
-10 -14 -5 0 -10 -5 -10 -11 0 -10 -22 -38 -82 -101 -14 -15 -25 -28 -22 -28
2 0 -4 -9 -13 -19 -9 -11 -21 -17 -26 -14 -6 3 -7 1 -4 -5 7 -9 -13 -31 -72
-82 -13 -11 -20 -20 -16 -20 5 0 -27 -35 -70 -78 -43 -42 -82 -76 -86 -75 -5
2 -9 -2 -9 -7 0 -6 -8 -10 -17 -11 -10 0 -13 -3 -6 -6 15 -6 -1 -21 -122 -118
-27 -22 -54 -43 -60 -48 -5 -4 -27 -21 -49 -37 -21 -17 -44 -30 -51 -30 -7 0
-15 -6 -18 -13 -5 -12 -148 -113 -208 -147 -16 -8 -56 -31 -91 -50 -34 -19
-68 -34 -76 -32 -8 2 -12 -1 -9 -6 4 -4 -22 -22 -56 -39 -130 -65 -236 -113
-249 -113 -8 0 -18 -4 -23 -9 -16 -16 -166 -70 -159 -58 5 8 2 8 -7 -1 -7 -6
-23 -12 -36 -12 -13 0 -23 -4 -23 -9 0 -11 -222 -74 -260 -74 -16 0 -27 -3
-25 -7 8 -12 -245 -55 -445 -75 -172 -17 -553 -12 -705 10 -60 8 -128 18 -150
21 -62 8 -181 33 -270 55 -192 48 -448 136 -439 150 6 10 5 10 -43 14 -18 1
-44 10 -58 19 -13 9 -29 16 -35 16 -13 0 -202 93 -255 126 -22 14 -48 27 -57
31 -10 3 -18 10 -18 16 0 6 -3 8 -6 4 -7 -7 -116 61 -127 80 -5 7 -12 11 -18
8 -5 -4 -9 -1 -9 4 0 6 -6 11 -13 11 -7 0 -23 9 -35 20 -12 11 -25 20 -30 20
-18 0 -92 62 -85 72 3 6 1 8 -5 5 -17 -11 -176 119 -166 135 3 5 1 7 -4 6 -15
-4 -47 20 -128 96 -41 38 -71 73 -67 79 3 6 1 7 -4 4 -15 -9 -115 101 -106
116 3 7 2 9 -2 4 -11 -9 -45 21 -45 40 0 8 -4 12 -8 9 -9 -5 -42 29 -42 44 0
5 -6 13 -13 17 -7 4 -28 29 -47 56 -18 26 -37 47 -41 47 -4 0 -11 9 -14 20 -3
11 -12 26 -19 32 -30 32 -65 85 -59 91 3 4 1 7 -5 7 -11 0 -124 176 -155 242
-10 20 -22 40 -27 43 -5 3 -7 14 -5 25 2 12 0 18 -5 15 -5 -3 -22 23 -38 57
-16 35 -46 98 -66 140 -20 43 -36 84 -36 91 0 8 -3 17 -7 21 -7 7 -14 23 -63
161 -50 140 -82 256 -129 470 -18 82 -51 303 -59 400 -11 138 -8 507 6 628 13
118 69 408 80 417 4 3 8 19 10 35 1 17 5 37 9 45 3 8 7 22 8 30 5 35 38 141
46 146 5 3 9 14 9 26 0 31 51 168 63 168 6 0 7 3 4 6 -3 4 -2 15 4 26 6 11 12
29 14 40 3 12 20 53 39 92 19 39 37 81 41 94 3 12 11 22 16 22 5 0 9 6 9 13 0
14 56 125 95 188 73 116 128 199 134 199 3 0 12 12 19 28 6 15 26 42 42 61 17
18 30 36 30 40 0 3 19 26 41 51 23 25 48 55 56 67 32 47 106 122 116 116 6 -3
7 -1 3 5 -4 7 17 36 49 69 30 31 55 61 55 65 0 4 3 8 8 8 4 0 37 28 74 63 37
34 84 76 104 92 20 17 45 40 57 53 11 12 27 22 34 22 8 0 16 7 19 15 4 8 10
12 15 9 5 -3 9 1 9 8 0 8 12 21 28 30 15 9 36 25 47 35 27 24 75 55 75 48 0
-4 6 0 14 8 8 7 38 29 68 48 29 18 55 36 58 39 12 14 70 51 70 44 0 -4 8 0 18
8 9 8 37 26 62 39 25 13 47 27 50 31 3 3 19 10 35 14 16 4 36 13 43 21 7 7 25
16 40 19 15 4 34 12 42 20 8 7 29 16 45 20 17 4 32 10 35 14 10 13 92 40 103
34 7 -4 9 -3 4 1 -4 5 12 15 35 22 24 8 59 22 78 30 19 9 49 17 67 17 17 1 29
4 27 8 -4 6 27 20 56 23 8 1 22 5 30 8 8 4 24 8 35 10 11 1 25 5 30 8 23 14
348 78 475 94 25 3 90 8 145 11 55 4 102 8 104 10 12 10 421 2 528 -11z"/>
<path d="M5263 8833 c-12 -3 -33 -15 -48 -29 -22 -20 -25 -27 -15 -39 10 -12
38 -15 120 -15 106 0 107 0 119 27 19 42 -5 58 -87 59 -37 0 -77 -1 -89 -3z"/>
<path d="M5752 8819 c-19 -7 -23 -15 -20 -41 3 -33 3 -33 73 -41 89 -11 156
-10 168 2 17 17 -3 48 -41 65 -43 19 -145 28 -180 15z"/>
<path d="M4825 8769 c-34 -8 -70 -14 -112 -18 -12 -1 -43 -51 -43 -70 0 -18
58 -22 116 -7 33 8 72 16 88 18 39 4 53 41 26 68 -11 11 -23 20 -27 19 -5 -1
-26 -5 -48 -10z"/>
<path d="M6260 8725 c-14 -17 -5 -52 18 -63 40 -20 175 -45 191 -35 20 13 27
70 9 70 -7 0 -50 10 -95 22 -96 25 -107 26 -123 6z"/>
<path d="M5368 8695 c-2 -1 -58 -5 -126 -8 -67 -4 -153 -11 -190 -18 -105 -17
-313 -57 -357 -69 -138 -38 -224 -64 -253 -77 -18 -8 -41 -12 -50 -8 -9 3 -13
3 -9 -1 8 -9 -39 -34 -64 -34 -10 0 -21 -4 -24 -10 -3 -5 -15 -10 -26 -10 -10
0 -19 -5 -19 -11 0 -8 -5 -7 -16 1 -12 11 -15 11 -12 0 2 -7 -10 -17 -27 -23
-16 -5 -32 -13 -35 -17 -3 -4 -35 -21 -72 -38 -37 -17 -120 -63 -184 -102 -64
-38 -118 -70 -121 -70 -2 0 -10 -6 -17 -12 -8 -7 -24 -20 -36 -28 -12 -8 -77
-55 -144 -104 -126 -93 -136 -101 -348 -306 -71 -69 -134 -124 -139 -122 -5 1
-9 -4 -9 -11 0 -7 -18 -33 -40 -57 -22 -24 -40 -47 -40 -51 0 -3 -12 -20 -27
-37 -40 -44 -53 -60 -53 -67 0 -3 -11 -18 -25 -33 -22 -24 -69 -95 -100 -153
-5 -11 -13 -19 -17 -19 -5 0 -8 -6 -8 -13 0 -7 -8 -22 -17 -33 -21 -24 -36
-51 -116 -209 -33 -66 -64 -122 -68 -123 -5 -2 -7 -7 -4 -12 7 -11 -35 -110
-47 -110 -5 0 -7 -4 -4 -9 3 -4 -8 -46 -25 -92 -17 -46 -40 -113 -51 -149 -11
-36 -25 -68 -30 -71 -6 -4 -8 -11 -4 -17 3 -6 1 -23 -5 -39 -18 -47 -76 -351
-90 -468 -14 -120 -18 -518 -7 -630 16 -147 37 -285 69 -435 7 -30 13 -62 14
-70 1 -8 5 -22 8 -30 3 -8 15 -49 26 -90 12 -41 37 -120 57 -175 20 -55 37
-104 38 -110 1 -5 4 -14 8 -20 3 -5 9 -25 13 -42 3 -18 10 -33 15 -33 4 0 11
-12 15 -27 3 -15 10 -30 13 -33 4 -3 21 -34 37 -70 17 -36 32 -67 35 -70 6 -6
48 -81 73 -132 11 -21 23 -38 27 -38 4 0 10 -10 14 -23 3 -13 17 -36 31 -53
14 -16 25 -34 25 -40 0 -6 9 -19 20 -29 11 -10 20 -22 20 -28 0 -5 14 -27 31
-48 17 -21 28 -39 25 -39 -3 0 2 -8 12 -18 29 -31 60 -69 79 -99 10 -15 28
-38 40 -51 13 -13 23 -28 23 -34 0 -6 3 -9 6 -5 7 7 70 -63 67 -75 -2 -4 1 -7
6 -5 7 2 69 -53 108 -95 6 -7 48 -46 92 -87 44 -41 78 -79 74 -85 -3 -6 -3 -8
2 -4 8 8 83 -46 98 -69 4 -7 15 -13 24 -13 9 0 13 -6 10 -14 -4 -10 -1 -13 8
-10 8 3 24 -4 37 -16 13 -12 35 -29 51 -38 15 -9 27 -20 27 -24 0 -4 6 -8 13
-8 8 0 39 -18 71 -40 31 -22 59 -40 61 -40 8 0 152 -85 170 -101 11 -10 33
-21 49 -25 16 -4 55 -21 85 -38 71 -39 90 -48 176 -79 39 -14 79 -28 90 -33
11 -4 22 -8 25 -8 3 -1 10 -4 15 -7 6 -3 31 -12 58 -19 26 -7 47 -17 47 -21 0
-5 15 -9 34 -9 19 0 37 -4 41 -9 3 -6 13 -9 23 -9 9 0 64 -11 122 -25 91 -22
211 -44 330 -61 170 -24 585 -24 760 0 19 2 51 6 70 9 68 8 206 36 324 65 65
17 129 30 142 30 13 0 24 4 24 9 0 5 14 12 31 16 29 7 249 85 294 104 81 36
401 198 407 206 4 5 11 10 15 10 11 1 57 26 63 35 3 4 37 28 76 53 39 25 76
53 83 61 8 9 18 16 23 16 5 0 15 6 23 12 7 7 26 23 42 35 15 12 39 31 53 42
14 12 40 33 58 49 19 15 55 46 81 70 27 23 53 42 60 42 6 0 11 7 11 16 0 8 5
12 10 9 6 -3 10 0 10 7 0 8 10 20 21 28 12 8 27 21 33 29 6 7 26 29 43 50 39
43 65 73 106 125 18 21 43 50 58 65 14 14 55 69 92 121 37 52 71 100 75 105 4
6 17 27 30 48 12 20 26 43 32 50 14 15 83 146 154 292 50 103 156 370 156 394
0 6 5 11 11 11 5 0 7 5 4 10 -4 6 2 41 13 78 36 121 82 356 96 492 46 436 10
877 -103 1273 -11 37 -21 71 -22 75 -1 4 -3 12 -5 17 -2 6 -22 62 -45 125 -57
158 -63 171 -79 200 -8 14 -13 29 -12 34 2 5 -4 16 -11 25 -8 9 -31 48 -50 88
-31 64 -87 165 -120 217 -7 11 -29 46 -49 79 -21 33 -35 64 -31 70 3 6 1 7 -6
3 -6 -4 -14 0 -18 11 -3 10 -19 31 -35 47 -15 17 -28 34 -28 39 0 4 -6 14 -12
22 -7 7 -26 30 -43 50 -16 21 -34 43 -40 49 -5 6 -35 40 -65 76 -119 140 -334
341 -466 435 -15 11 -45 34 -65 50 -21 17 -80 57 -131 90 -51 33 -95 62 -98
65 -3 3 -39 23 -80 44 -41 21 -82 44 -90 51 -8 7 -27 15 -42 19 -16 3 -28 11
-28 16 0 6 -9 10 -20 10 -11 0 -20 4 -20 10 0 5 -3 9 -7 8 -15 -4 -53 13 -53
23 0 6 -4 8 -9 4 -5 -3 -16 2 -24 10 -9 8 -25 15 -36 15 -12 0 -29 4 -39 10
-90 52 -557 177 -762 205 -120 16 -558 32 -572 20z m522 -100 c58 -8 112 -16
120 -16 42 -3 294 -59 299 -66 3 -5 19 -10 35 -11 16 -1 35 -7 43 -13 7 -7 16
-9 19 -6 6 6 150 -42 209 -69 36 -16 169 -71 208 -86 15 -5 27 -14 27 -19 0
-5 8 -9 18 -9 9 0 62 -25 116 -55 55 -30 101 -55 103 -55 2 0 9 -5 16 -11 7
-5 57 -39 112 -75 55 -35 99 -69 97 -74 -1 -6 5 -10 13 -10 8 0 15 -4 15 -9 0
-5 10 -11 23 -15 12 -3 46 -28 75 -56 29 -27 56 -50 61 -50 4 0 31 -21 59 -47
28 -27 57 -53 64 -60 30 -27 63 -67 61 -74 -1 -4 5 -13 14 -21 14 -11 16 -11
9 2 -4 8 2 4 13 -9 12 -13 21 -20 21 -15 0 4 6 -1 14 -11 8 -11 12 -24 9 -29
-4 -5 -2 -6 4 -3 10 7 90 -80 86 -94 -2 -5 4 -6 11 -3 9 3 17 -3 21 -15 3 -12
11 -21 16 -21 5 0 9 -7 9 -15 0 -8 7 -15 16 -15 8 0 13 -4 10 -9 -3 -5 1 -15
10 -22 23 -19 120 -150 135 -182 7 -15 15 -27 19 -27 4 0 15 -17 26 -37 19
-38 29 -53 52 -78 25 -29 163 -308 158 -321 -3 -8 0 -13 5 -11 6 1 29 -41 50
-93 41 -98 120 -325 118 -338 -1 -4 0 -10 1 -14 1 -5 3 -11 5 -15 1 -5 4 -15
8 -23 24 -59 77 -368 93 -540 7 -85 8 -429 0 -475 -2 -16 -7 -64 -11 -105 -11
-128 -60 -405 -82 -460 -4 -8 -7 -18 -8 -22 -2 -5 -3 -9 -5 -10 -1 -2 -3 -12
-5 -23 -9 -45 -28 -106 -36 -111 -5 -3 -9 -16 -9 -28 0 -13 -8 -41 -17 -62 -9
-22 -17 -41 -18 -44 -4 -19 -29 -87 -35 -95 -4 -5 -14 -29 -21 -52 -6 -24 -16
-43 -21 -43 -4 0 -8 -5 -8 -11 0 -13 -80 -182 -90 -189 -4 -3 -10 -15 -14 -27
-4 -12 -30 -57 -59 -100 -28 -43 -50 -81 -49 -85 1 -3 -11 -20 -27 -37 -16
-17 -26 -32 -24 -35 5 -5 2 -10 -57 -76 -22 -25 -40 -49 -40 -54 0 -5 -16 -27
-35 -50 -20 -22 -53 -61 -74 -86 -92 -107 -156 -175 -163 -173 -5 2 -8 -1 -8
-7 0 -10 -95 -102 -111 -108 -6 -2 -32 -26 -58 -53 -27 -27 -53 -49 -59 -49
-6 0 -16 -8 -21 -17 -6 -10 -11 -15 -11 -11 0 4 -11 -4 -25 -18 -14 -14 -30
-22 -37 -18 -7 4 -8 3 -4 -4 7 -11 -6 -17 -27 -13 -5 1 -6 -3 -3 -7 3 -5 -3
-17 -14 -27 -11 -10 -20 -15 -20 -11 0 4 -12 -5 -27 -19 -16 -14 -38 -28 -50
-31 -12 -3 -24 -12 -27 -21 -3 -8 -10 -11 -16 -8 -5 3 -10 1 -10 -4 0 -6 -5
-11 -10 -11 -6 0 -21 -9 -33 -20 -12 -11 -27 -18 -35 -15 -7 2 -10 0 -7 -5 3
-5 -10 -17 -29 -27 -201 -103 -273 -137 -282 -135 -7 1 -14 -4 -18 -13 -3 -8
-12 -15 -19 -15 -8 0 -39 -11 -68 -24 -167 -73 -450 -155 -629 -181 -58 -9
-112 -18 -120 -20 -43 -13 -266 -26 -420 -26 -178 0 -423 21 -540 46 -36 7
-105 21 -155 30 -49 10 -100 24 -112 31 -12 8 -35 14 -51 14 -16 0 -32 3 -36
7 -3 4 -17 8 -29 10 -12 2 -31 7 -42 12 -11 5 -63 24 -115 41 -52 18 -99 36
-105 40 -5 3 -32 15 -60 25 -27 10 -70 30 -95 43 -25 14 -52 28 -60 32 -64 29
-136 66 -138 73 -2 4 -9 7 -15 7 -6 0 -27 11 -46 24 -20 13 -76 50 -126 82
-49 32 -96 64 -103 71 -8 7 -35 27 -60 45 -26 17 -48 35 -50 40 -2 4 -10 8
-18 8 -9 0 -13 4 -9 10 3 5 -8 16 -24 25 -17 8 -34 21 -38 28 -4 7 -32 32 -60
55 -29 24 -51 48 -50 54 1 6 -7 12 -17 14 -19 3 -40 28 -41 49 0 6 -7 9 -15 8
-8 -1 -41 29 -73 65 -31 37 -72 83 -90 103 -65 73 -110 128 -127 156 -9 15
-27 37 -39 47 -11 11 -21 23 -21 27 0 9 -38 68 -73 113 -12 17 -21 33 -20 37
1 4 -4 13 -12 19 -8 7 -15 17 -15 23 0 5 -11 25 -24 42 -14 18 -28 44 -32 59
-3 14 -10 26 -14 26 -4 0 -28 44 -54 98 -26 53 -51 104 -56 114 -36 66 -135
348 -123 348 3 0 1 6 -5 13 -6 6 -10 14 -11 17 0 3 -2 12 -5 20 -21 65 -61
247 -81 370 -60 377 -58 696 6 1035 11 55 21 112 23 126 25 151 182 609 209
609 4 0 6 4 3 9 -3 5 13 44 36 87 23 44 51 98 63 122 12 23 25 39 30 35 4 -5
5 -2 1 4 -7 13 100 191 133 223 9 9 17 21 19 28 1 8 11 23 22 35 11 11 20 25
20 29 0 5 5 6 12 2 6 -4 8 -3 5 3 -9 14 11 42 105 147 29 32 58 66 64 75 21
29 107 116 115 116 9 0 24 14 24 23 0 4 29 34 64 67 35 33 79 75 98 93 19 17
38 32 41 32 4 0 26 17 49 38 48 43 64 55 187 139 50 35 97 63 104 63 6 0 12 5
12 10 0 12 49 34 68 31 7 -1 11 3 10 10 -4 15 282 161 304 155 10 -2 16 0 15
5 -5 23 350 145 548 188 50 11 108 22 130 25 79 9 131 17 170 27 122 30 581
32 775 4z"/>
<path d="M3605 7859 c-16 -3 -26 -7 -21 -8 12 -1 -63 -71 -76 -71 -6 0 -8 -3
-5 -7 4 -3 1 -13 -5 -21 -7 -8 -13 -19 -14 -26 -1 -6 -8 -34 -17 -61 -20 -67
-21 -264 -3 -424 15 -131 11 -158 -26 -192 -10 -9 -18 -21 -18 -27 0 -6 -8
-16 -17 -21 -10 -6 -15 -11 -11 -11 4 0 1 -8 -6 -17 -36 -44 -86 -114 -86
-119 0 -4 -8 -14 -17 -23 -10 -9 -31 -42 -48 -74 -16 -31 -33 -57 -37 -57 -4
0 -8 -7 -8 -15 0 -8 -11 -38 -24 -67 -45 -97 -59 -163 -54 -262 5 -92 33 -190
64 -220 8 -8 14 -18 14 -21 0 -13 37 -54 43 -48 4 3 12 -6 18 -21 7 -14 18
-26 25 -26 7 0 21 -9 31 -19 10 -11 37 -27 60 -36 24 -9 41 -20 39 -24 -8 -13
162 -13 185 0 22 11 22 12 4 25 -10 8 -28 14 -38 14 -29 0 -128 48 -161 79
-51 47 -112 151 -133 226 -20 75 -14 158 18 249 16 44 35 83 41 88 7 4 10 8 5
8 -10 0 18 53 37 69 8 7 18 25 21 41 3 16 13 31 21 34 8 3 14 11 14 18 0 7 10
25 23 40 12 15 30 37 39 50 24 30 38 14 40 -48 1 -27 5 -53 9 -59 3 -5 9 -26
12 -45 3 -19 28 -156 55 -305 28 -148 55 -310 61 -360 6 -49 13 -101 16 -115
6 -31 16 -168 19 -277 2 -85 -9 -227 -21 -253 -3 -8 -8 -25 -9 -37 -4 -35 -74
-155 -74 -127 0 12 -54 -68 -56 -84 -2 -8 0 -11 3 -9 3 3 23 -4 45 -15 39 -21
40 -21 72 -2 34 19 87 60 136 104 16 14 38 32 49 40 12 8 21 20 21 27 0 6 9
15 20 18 11 3 20 10 20 14 0 4 21 35 48 68 26 33 54 70 62 83 8 13 28 38 44
57 15 18 24 33 20 33 -5 0 -4 4 1 8 10 6 47 60 51 72 13 41 17 50 24 50 4 0
29 44 55 98 27 53 52 99 57 100 4 2 8 12 8 22 0 10 6 25 13 32 6 7 13 20 15
28 2 8 14 36 28 62 13 27 25 51 25 55 3 16 12 39 34 88 12 28 34 80 50 118 15
37 31 70 36 73 5 3 9 16 9 28 0 13 7 29 15 36 9 7 14 19 11 27 -3 7 0 13 6 13
6 0 9 3 6 6 -5 5 2 27 42 119 5 11 16 41 26 68 9 26 21 47 26 47 5 0 6 5 3 10
-4 6 -2 16 3 23 5 7 13 23 17 35 4 13 18 48 31 78 13 30 24 56 25 59 1 10 72
150 78 155 6 5 23 35 62 108 9 18 29 48 44 67 14 19 23 35 20 35 -4 0 0 6 7
13 7 8 24 29 38 47 44 59 143 144 154 133 3 -3 6 -2 6 3 0 15 75 55 133 70 97
26 265 13 350 -26 15 -7 27 -17 27 -22 0 -5 4 -7 9 -4 11 7 86 -60 86 -77 0
-7 10 -22 22 -34 13 -13 20 -29 17 -38 -4 -8 -2 -15 3 -15 5 0 10 -6 11 -12 1
-7 3 -31 5 -53 8 -72 -48 -225 -76 -208 -5 3 -7 2 -4 -4 9 -14 -41 -67 -83
-89 -19 -11 -41 -25 -48 -31 -26 -25 -100 -37 -232 -37 -137 -1 -182 8 -222
42 -10 8 -18 12 -18 8 0 -9 -50 23 -80 52 -40 39 -78 63 -84 54 -11 -19 29
-99 72 -143 57 -61 180 -122 267 -134 155 -22 327 10 440 81 60 37 125 96 125
112 0 7 4 12 8 12 5 0 17 17 28 38 10 20 23 43 28 50 6 8 11 21 12 30 1 10 8
45 14 80 11 57 7 113 -14 197 -9 37 -57 108 -106 155 -104 101 -247 150 -433
150 -103 0 -187 -17 -272 -54 -31 -14 -59 -25 -63 -25 -19 3 -33 -2 -28 -10 3
-5 -1 -14 -9 -21 -8 -7 -15 -9 -15 -6 0 4 -6 1 -13 -6 -8 -7 -29 -24 -48 -38
-36 -27 -153 -140 -144 -140 4 0 -11 -20 -50 -64 -5 -6 -11 -17 -13 -25 -1 -7
-9 -20 -18 -28 -8 -8 -24 -34 -35 -57 -12 -22 -28 -48 -36 -58 -8 -9 -15 -22
-16 -30 -5 -33 -73 -158 -84 -154 -7 3 -10 -1 -6 -10 3 -8 1 -20 -5 -27 -11
-12 -12 -17 -12 -41 0 -8 -12 -29 -26 -46 -15 -17 -24 -33 -21 -36 3 -3 -9
-36 -28 -72 -18 -37 -39 -84 -46 -104 -7 -21 -17 -38 -21 -38 -4 0 -8 -5 -8
-11 0 -18 -63 -149 -72 -149 -4 0 -8 -9 -8 -20 0 -18 -19 -70 -30 -80 -3 -3
-6 -10 -7 -16 -1 -7 -14 -37 -28 -67 -14 -31 -25 -58 -25 -61 0 -4 -8 -25 -19
-49 -10 -23 -31 -71 -46 -107 -47 -113 -107 -235 -116 -238 -5 -2 -9 -10 -9
-18 0 -20 -36 -75 -44 -67 -4 4 -5 1 -2 -7 6 -15 -78 -170 -92 -170 -4 0 -7
96 -7 213 -1 206 -11 351 -40 567 -8 58 -17 132 -20 165 -4 33 -8 67 -11 75
-4 15 -8 43 -38 280 -39 303 -39 294 -8 328 15 17 56 69 92 117 36 48 73 96
83 106 9 11 14 19 11 19 -3 0 6 20 20 44 36 62 59 158 51 213 -10 68 -65 123
-152 151 -73 23 -169 33 -218 21z m169 -135 c9 -3 13 -10 10 -15 -3 -5 4 -9
15 -9 42 0 51 -10 51 -59 0 -40 -9 -62 -50 -132 -28 -46 -55 -85 -60 -87 -6
-2 -10 -8 -10 -14 0 -6 -13 -25 -29 -43 -25 -29 -30 -31 -34 -15 -6 23 -1 247
6 275 22 85 54 117 101 99z"/>
<path d="M6273 6814 c-4 -10 -14 -24 -22 -31 -9 -7 -12 -13 -8 -13 4 0 -4 -12
-18 -27 -14 -15 -25 -33 -25 -39 0 -5 -9 -19 -19 -31 -10 -11 -27 -35 -36 -54
-10 -19 -29 -50 -44 -69 -14 -19 -51 -77 -82 -128 -31 -51 -68 -107 -82 -125
-40 -48 -74 -97 -97 -141 -23 -41 -120 -169 -132 -174 -5 -2 -8 -10 -8 -18 0
-7 -14 -27 -31 -44 -18 -16 -28 -30 -24 -30 4 0 -1 -8 -11 -17 -11 -10 -33
-35 -48 -56 -27 -35 -28 -40 -17 -81 6 -25 11 -56 11 -70 0 -30 7 -32 36 -11
12 8 24 11 28 8 3 -3 6 -1 6 5 0 7 12 12 26 12 14 0 23 -4 20 -9 -3 -4 5 -6
18 -4 15 3 27 17 36 41 7 21 12 38 11 40 -1 1 5 15 14 31 8 16 22 50 31 76 36
106 188 417 199 407 5 -4 5 -2 2 5 -7 12 23 73 36 73 4 0 7 6 7 13 0 25 52
117 62 110 6 -3 8 -1 5 5 -10 15 42 114 55 106 7 -5 9 -1 5 9 -3 9 1 24 11 34
9 9 17 21 17 27 1 13 36 89 45 96 12 10 42 82 36 87 -3 3 -9 -3 -13 -13z"/>
<path d="M6842 5829 c-30 -5 -88 -23 -130 -41 -42 -18 -78 -31 -79 -30 -11 8
-157 -145 -174 -181 -7 -15 -16 -24 -20 -21 -5 3 -9 -1 -9 -9 0 -7 -13 -40
-29 -73 -47 -99 -94 -272 -115 -429 -3 -22 -8 -53 -11 -70 -4 -31 -20 -227
-30 -375 -3 -47 -8 -110 -10 -140 -2 -30 -7 -101 -11 -157 -3 -57 -8 -103 -10
-103 -2 0 -47 11 -100 25 -105 27 -201 32 -286 14 -58 -13 -149 -54 -187 -84
-44 -37 -111 -110 -111 -123 0 -6 -9 -29 -20 -49 -11 -21 -20 -50 -20 -66 0
-19 -4 -26 -12 -21 -6 4 -8 3 -5 -3 4 -6 9 -37 12 -69 8 -80 48 -158 102 -196
23 -17 40 -35 36 -41 -3 -6 -2 -7 3 -4 6 3 37 -5 69 -19 74 -30 192 -46 241
-33 19 6 38 7 43 4 5 -3 12 -1 16 5 4 6 11 8 16 5 5 -4 9 -2 9 3 0 5 19 15 43
22 23 8 46 20 50 27 4 7 12 13 18 13 5 0 28 17 51 38 22 20 44 36 49 35 4 -2
6 3 3 11 -3 7 2 19 11 26 8 7 15 19 15 26 0 8 3 14 8 14 14 0 63 122 77 193 5
25 35 40 35 17 0 -5 6 -10 14 -10 8 0 16 -3 18 -7 2 -5 18 -15 36 -23 l32 -15
-18 -34 c-15 -27 -25 -34 -56 -37 -69 -6 -96 -65 -55 -118 16 -20 29 -26 61
-26 45 0 90 35 135 106 16 25 32 40 40 37 7 -3 11 -8 8 -12 -2 -4 1 -8 8 -8
15 0 188 -103 199 -118 4 -5 8 -6 8 -2 0 5 21 -3 48 -17 116 -61 274 -99 417
-99 124 -1 188 7 273 35 37 12 75 21 85 20 9 0 17 3 17 7 0 5 8 11 18 14 9 4
32 13 50 21 18 9 30 11 27 6 -4 -6 5 -5 20 2 16 7 21 14 14 19 -8 4 -5 9 8 13
21 7 103 84 103 98 0 4 6 8 13 8 18 0 33 35 43 96 10 59 10 56 0 122 -4 28
-13 52 -19 52 -6 0 -8 3 -4 6 12 12 -84 90 -131 107 -73 26 -174 19 -229 -16
-6 -4 -17 -6 -25 -4 -7 2 -10 2 -5 -1 4 -2 -11 -21 -33 -42 -54 -51 -88 -128
-94 -213 -3 -37 -1 -78 3 -90 7 -18 10 -14 25 31 10 29 22 52 26 52 5 0 7 7 4
15 -4 8 -1 15 5 15 6 0 11 6 11 14 0 7 11 21 24 32 14 10 23 21 20 25 -5 9 36
35 49 31 5 -1 6 2 3 7 -8 12 56 44 89 44 33 0 86 -23 79 -34 -3 -5 -2 -9 3 -8
22 4 32 -4 49 -38 9 -21 17 -51 17 -68 -1 -43 -20 -88 -35 -79 -7 4 -8 3 -4
-4 21 -34 -159 -137 -282 -162 -97 -20 -300 -5 -382 27 -8 3 -23 8 -33 10 -10
1 -31 10 -47 18 -17 9 -32 15 -35 15 -11 -1 -150 73 -153 81 -2 5 -10 9 -17 9
-21 0 -124 63 -119 72 3 5 2 7 -3 6 -13 -4 -73 26 -73 37 0 23 13 54 20 50 4
-2 7 12 7 33 0 20 6 64 13 97 23 115 12 235 -26 275 -16 16 -15 17 -19 -90 -2
-63 -13 -130 -25 -145 -4 -5 -15 -36 -25 -67 -26 -84 -35 -94 -76 -81 -19 5
-33 15 -31 21 1 7 -7 12 -19 12 -11 0 -30 5 -41 11 -19 10 -20 17 -14 118 4
58 9 115 11 126 7 34 21 209 29 380 12 216 39 468 55 515 5 14 12 46 15 72 3
26 12 64 20 83 8 19 15 38 15 40 2 18 65 127 92 158 55 64 162 114 250 117 90
4 182 -22 161 -45 -4 -5 -2 -5 4 -2 12 7 29 -11 53 -52 35 -64 18 -231 -29
-272 -9 -8 -20 -24 -24 -35 -7 -20 -67 -64 -89 -64 -7 0 -18 -5 -25 -12 -7 -7
-39 -12 -73 -13 -49 0 -63 4 -75 19 -8 11 -14 16 -14 12 0 -11 -32 32 -48 64
-16 32 -23 88 -12 95 5 3 7 12 4 19 -3 8 -1 17 5 21 15 9 14 46 -1 43 -7 -2
-28 -23 -48 -48 -32 -42 -35 -50 -35 -115 0 -55 5 -78 22 -106 29 -46 69 -89
83 -89 6 0 21 -5 33 -12 25 -14 144 -12 182 2 15 6 35 10 45 10 20 0 49 22
122 91 26 25 50 44 53 41 3 -3 5 3 5 14 0 11 6 28 14 39 7 11 22 48 31 83 24
85 16 228 -14 271 -12 16 -21 32 -21 36 0 16 -77 78 -118 96 -51 22 -154 30
-230 18z m-717 -1733 c78 -25 77 -23 44 -111 -22 -57 -92 -169 -129 -206 -36
-35 -76 -59 -100 -59 -11 0 -20 -4 -20 -9 0 -29 -160 -21 -190 9 -10 10 -27
21 -37 24 -31 10 -67 97 -59 141 8 43 45 105 63 105 7 0 20 11 29 25 58 89
250 128 399 81z"/>
<path d="M5424 5699 c-55 -15 -69 -41 -68 -128 0 -89 2 -99 35 -170 l24 -53
66 5 c70 6 175 43 208 74 48 44 44 114 -9 163 -26 24 -38 29 -71 25 -32 -3
-41 0 -51 18 -17 32 -56 66 -81 70 -12 2 -36 0 -53 -4z"/>
<path d="M5322 5367 c-11 -26 -33 -75 -48 -109 -31 -72 -43 -90 -54 -83 -4 2
-5 -7 -2 -21 3 -15 -2 -32 -12 -43 -9 -10 -13 -21 -9 -24 3 -4 2 -7 -4 -7 -5
0 -10 -6 -10 -12 0 -15 -182 -390 -192 -398 -4 -3 -13 -20 -20 -37 -8 -18 -17
-33 -22 -33 -5 0 -8 -3 -6 -8 5 -15 -37 -92 -50 -92 -8 0 -11 -5 -8 -10 9 -15
-48 -130 -62 -125 -18 6 -27 -14 -13 -30 6 -7 7 -16 2 -19 -5 -3 -23 -36 -41
-73 -18 -37 -36 -76 -42 -85 -21 -39 2 -15 37 40 21 31 50 73 65 92 15 19 26
38 25 42 0 4 7 17 17 28 9 11 17 24 17 28 0 4 7 17 15 27 27 36 65 96 65 104
0 4 9 16 19 28 10 11 27 35 36 54 17 31 53 87 65 99 3 3 10 14 17 25 71 119
95 155 104 155 6 0 8 4 5 9 -4 5 -3 11 1 13 5 1 35 44 68 93 33 50 70 101 83
115 13 14 45 55 71 92 27 37 52 64 56 60 3 -4 6 -2 4 3 -1 6 1 18 6 28 13 29
1 29 -66 -3 -73 -34 -79 -31 -79 45 0 76 -14 87 -38 32z"/>
<path d="M5160 4710 c0 -5 5 -10 10 -10 6 0 10 5 10 10 0 6 -4 10 -10 10 -5 0
-10 -4 -10 -10z"/>
<path d="M4310 8623 c-14 -3 -32 -11 -40 -18 -8 -7 -29 -16 -47 -20 -35 -7
-47 -19 -56 -52 -4 -17 1 -24 17 -29 25 -9 79 -5 86 6 3 4 25 14 50 21 72 21
89 35 81 67 -8 28 -35 36 -91 25z"/>
<path d="M6782 8574 c5 -4 -2 -12 -14 -18 -12 -6 -23 -17 -26 -25 -3 -8 0 -11
6 -7 6 3 13 -3 17 -14 3 -11 11 -20 16 -20 6 0 29 -9 52 -21 74 -36 111 -47
135 -38 31 12 28 26 -16 69 -24 24 -54 42 -82 49 -25 7 -56 16 -70 22 -14 6
-22 7 -18 3z"/>
<path d="M3828 8387 c-21 -7 -47 -20 -58 -29 -11 -10 -24 -18 -29 -18 -9 0
-31 -45 -31 -65 0 -24 32 -32 70 -19 19 7 31 13 25 14 -5 0 10 10 34 21 60 28
83 52 79 81 -4 28 -34 33 -90 15z"/>
<path d="M7226 8312 c-11 -18 30 -73 79 -108 37 -25 66 -37 92 -38 36 -1 38 0
35 29 -2 18 -16 41 -35 58 -55 48 -156 84 -171 59z"/>
<path d="M3376 8070 c-37 -27 -72 -48 -76 -45 -4 3 -13 -2 -19 -9 -7 -8 -8
-17 -3 -20 5 -3 7 -16 5 -30 -6 -29 9 -39 45 -31 30 6 64 32 125 92 26 27 37
45 35 63 -5 41 -37 35 -112 -20z"/>
<path d="M7662 7999 c-12 -5 -22 -12 -22 -17 0 -15 62 -104 76 -109 8 -3 11
-10 7 -17 -3 -6 -3 -8 2 -4 4 4 20 -1 35 -12 16 -11 43 -20 60 -20 31 0 32 1
26 31 -3 17 -6 35 -6 40 0 5 -5 9 -11 9 -13 0 -40 26 -33 32 2 3 -3 11 -13 19
-15 12 -16 12 -9 -1 4 -8 -2 -4 -13 9 -12 12 -18 28 -14 35 3 6 3 8 -1 4 -4
-3 -20 -3 -34 2 -15 4 -37 3 -50 -1z"/>
<path d="M3033 7729 c-24 -12 -43 -25 -43 -30 0 -6 -6 -9 -13 -7 -7 2 -14 -1
-16 -7 -2 -5 -12 -27 -22 -47 -36 -70 -19 -103 41 -82 19 6 34 15 32 18 -2 5
55 83 78 106 9 9 5 63 -5 67 -5 1 -29 -6 -52 -18z"/>
<path d="M8021 7599 c-11 -30 -7 -40 35 -86 19 -20 36 -44 39 -53 7 -23 68
-55 89 -47 19 8 16 26 -15 93 -27 58 -71 103 -107 110 -27 6 -33 3 -41 -17z"/>
<path d="M2875 7409 c-4 -6 -5 -12 -2 -15 2 -3 7 2 10 11 7 17 1 20 -8 4z"/>
<path d="M2711 7334 c-1 -6 -12 -24 -26 -40 -14 -16 -25 -33 -25 -37 0 -5 -8
-21 -19 -35 -10 -15 -22 -47 -26 -71 l-7 -44 28 7 c16 4 37 8 46 9 9 1 14 5
12 9 -3 4 0 8 7 8 7 0 9 3 6 6 -8 8 32 66 41 60 4 -2 7 8 8 22 0 15 4 41 9 59
6 26 4 33 -15 43 -15 8 -20 8 -16 1 4 -6 3 -11 -3 -11 -5 0 -12 6 -14 13 -3 7
-6 7 -6 1z"/>
<path d="M8320 7170 c0 -28 35 -116 62 -156 25 -37 77 -62 89 -43 7 13 -8 91
-20 99 -13 8 -33 51 -27 57 3 4 -8 19 -24 35 -36 34 -80 38 -80 8z"/>
<path d="M2436 6823 c-48 -99 -61 -157 -43 -183 11 -16 17 -17 37 -7 12 7 26
19 30 27 4 8 16 33 27 56 44 84 39 144 -11 144 -16 0 -28 -11 -40 -37z"/>
<path d="M8554 6685 c-10 -40 46 -187 76 -202 21 -11 27 -10 38 5 14 18 9 86
-8 107 -4 5 -11 27 -15 48 -12 61 -78 92 -91 42z"/>
<path d="M2272 6347 c-6 -7 -16 -44 -22 -82 -6 -37 -13 -72 -16 -77 -10 -15 5
-55 22 -62 16 -6 72 18 65 28 -7 12 22 145 31 140 4 -3 4 6 -2 20 -5 14 -6 26
-2 26 4 0 0 5 -8 10 -21 14 -56 12 -68 -3z"/>
<path d="M8703 6185 c-3 -9 0 -59 8 -111 11 -83 16 -98 35 -106 35 -16 54 -3
54 37 0 57 -22 179 -34 187 -19 13 -56 9 -63 -7z"/>
<path d="M2180 5805 c-16 -41 -15 -196 1 -206 44 -28 64 5 73 117 6 96 1 114
-35 114 -22 0 -32 -6 -39 -25z"/>
<path d="M8766 5639 c-10 -53 -6 -163 7 -188 15 -30 44 -35 57 -11 12 23 16
175 6 208 -5 16 -15 22 -35 22 -24 0 -30 -5 -35 -31z"/>
<path d="M2189 5294 c-22 -27 -13 -190 12 -220 13 -16 45 -19 54 -4 12 19 6
181 -7 208 -16 32 -40 39 -59 16z"/>
<path d="M8765 5138 c-11 -6 -21 -12 -23 -13 -5 -4 -16 -112 -17 -165 0 -52 1
-55 27 -58 33 -4 44 14 53 91 12 92 12 121 3 140 -10 20 -16 20 -43 5z"/>
<path d="M2271 4771 c-9 -6 -14 -25 -13 -53 3 -109 42 -178 100 -178 16 0 18
5 12 48 -4 26 -16 80 -26 120 -15 60 -21 72 -38 72 -12 0 -27 -4 -35 -9z"/>
<path d="M8665 4621 c-11 -5 -24 -6 -29 -3 -5 3 -6 0 -2 -6 4 -7 3 -12 -3 -12
-6 0 -8 -6 -5 -13 2 -7 -5 -39 -16 -71 -34 -99 -22 -149 30 -123 36 18 82 175
64 221 -7 18 -10 18 -39 7z"/>
<path d="M2421 4258 c-8 -22 4 -88 18 -98 4 -3 16 -27 27 -55 17 -41 25 -51
49 -53 34 -4 46 12 38 52 -8 41 -62 159 -77 168 -21 14 -47 8 -55 -14z"/>
<path d="M8480 4133 c-18 -4 -32 -24 -72 -102 -31 -60 -38 -131 -13 -131 23 0
65 22 59 31 -3 5 -1 9 4 9 14 0 48 77 56 125 8 44 -8 74 -34 68z"/>
<path d="M2672 3798 c-16 -16 -15 -43 3 -78 9 -17 13 -30 11 -30 -3 0 6 -12
19 -26 14 -15 25 -30 25 -33 0 -4 16 -15 34 -25 69 -37 81 4 27 96 -30 52 -81
108 -100 108 -4 0 -12 -5 -19 -12z"/>
<path d="M8170 3628 c-14 -17 -31 -37 -38 -44 -7 -7 -12 -16 -12 -19 0 -3 -7
-16 -16 -29 -8 -14 -14 -37 -12 -53 2 -23 7 -28 28 -25 32 3 104 78 121 126 7
20 17 36 21 36 5 0 4 9 -2 20 -17 31 -60 26 -90 -12z"/>
<path d="M2998 3383 c-13 -3 -18 -15 -18 -41 0 -29 9 -47 39 -82 22 -24 37
-49 34 -55 -4 -5 -2 -7 2 -2 5 4 18 0 31 -8 12 -8 35 -13 51 -12 29 2 29 3 21
38 -9 35 -98 139 -119 139 -6 0 -7 4 -4 10 4 6 -1 7 -11 3 -12 -4 -15 -3 -10
5 4 7 6 11 4 11 -2 -1 -11 -3 -20 -6z"/>
<path d="M7873 3249 c-39 -11 -124 -94 -143 -139 -11 -27 -11 -33 1 -41 20
-13 36 -11 53 6 8 8 20 15 26 15 6 0 35 25 66 56 43 45 54 62 52 85 -2 31 -6
32 -55 18z"/>
<path d="M3352 2976 c5 -17 10 -36 11 -43 0 -7 4 -10 8 -7 4 2 9 0 11 -5 7
-22 113 -91 139 -91 23 0 27 5 31 35 3 27 0 36 -14 41 -10 3 -18 10 -18 15 0
5 -7 9 -15 9 -8 0 -15 8 -15 17 0 9 -3 13 -7 10 -3 -4 -17 3 -30 14 -12 12
-42 25 -67 29 l-44 6 10 -30z"/>
<path d="M7458 2886 c-20 -6 -56 -28 -80 -48 -23 -21 -48 -38 -54 -38 -8 0 -9
-11 -5 -32 6 -29 11 -33 37 -30 63 6 144 63 164 116 17 47 5 53 -62 32z"/>
<path d="M3786 2692 c-2 -4 -1 -23 4 -42 4 -19 8 -31 9 -26 1 5 12 -3 25 -17
13 -14 42 -32 65 -39 23 -8 39 -17 37 -19 -3 -3 9 -6 26 -7 72 -6 71 59 -2 94
-25 12 -50 26 -55 31 -12 11 -73 33 -91 33 -7 0 -15 -3 -18 -8z"/>
<path d="M6963 2588 c-37 -17 -75 -33 -83 -38 -17 -8 -32 -68 -18 -76 31 -20
167 36 201 82 42 57 -7 73 -100 32z"/>
<path d="M4260 2436 c0 -29 52 -76 84 -76 12 0 26 -4 32 -9 5 -5 32 -12 60
-16 45 -6 52 -4 56 12 8 30 -9 62 -37 69 -14 3 -23 9 -20 12 7 8 -98 30 -142
31 -28 1 -33 -2 -33 -23z"/>
<path d="M6490 2394 c-25 -7 -57 -16 -72 -19 -56 -11 -82 -76 -35 -89 26 -7
164 31 190 52 21 19 22 58 1 66 -20 8 -30 7 -84 -10z"/>
<path d="M4783 2303 c-15 -6 -17 -37 -4 -62 7 -11 23 -18 46 -19 20 -1 54 -6
76 -12 78 -21 142 16 96 55 -30 27 -179 53 -214 38z"/>
<path d="M5979 2276 c-2 -2 -28 -7 -57 -10 -57 -7 -92 -21 -92 -36 0 -6 9 -19
21 -31 17 -17 31 -20 82 -18 34 1 76 7 92 12 54 18 74 69 33 81 -26 7 -73 8
-79 2z"/>
<path d="M5370 2240 c-62 -6 -80 -14 -80 -36 0 -34 26 -43 121 -44 108 -1 139
5 139 29 0 48 -54 63 -180 51z"/>
<path d="M8510 8046 c0 -2 7 -7 16 -10 8 -3 12 -2 9 4 -6 10 -25 14 -25 6z"/>
<path d="M1530 5481 c-41 -8 -130 -51 -130 -62 0 -4 -9 -11 -20 -14 -11 -4
-18 -11 -15 -16 4 -5 -1 -9 -10 -9 -9 0 -13 -4 -10 -10 3 -5 2 -10 -3 -10 -14
0 -59 -108 -70 -167 -22 -123 29 -314 103 -388 17 -17 18 -20 3 -23 -9 -2 -54
6 -100 17 -138 32 -236 43 -373 39 -139 -4 -222 -22 -308 -65 -26 -13 -52 -21
-57 -18 -5 3 -14 -3 -19 -13 -6 -11 -25 -25 -43 -33 -18 -7 -44 -23 -57 -36
-14 -12 -28 -20 -33 -17 -5 3 -7 2 -6 -3 4 -13 -25 -53 -38 -53 -7 0 -15 -7
-18 -16 -3 -8 -11 -12 -17 -8 -8 4 -9 3 -5 -5 9 -15 -20 -44 -35 -35 -8 4 -9
3 -5 -4 6 -11 -30 -73 -46 -80 -5 -2 -8 -10 -8 -18 0 -8 -4 -14 -8 -14 -5 0
-16 -17 -25 -37 -8 -21 -24 -54 -35 -73 -34 -59 -66 -232 -65 -345 2 -114 43
-273 81 -313 6 -7 12 -17 12 -22 0 -5 14 -23 30 -40 17 -17 27 -36 24 -42 -4
-6 -3 -8 3 -5 10 6 42 -21 36 -30 -2 -1 -2 -2 0 -1 1 1 23 -12 49 -30 26 -18
50 -32 53 -32 4 0 19 -8 33 -19 15 -10 56 -28 92 -41 80 -28 253 -36 305 -14
18 7 36 10 40 6 3 -4 12 0 18 9 7 9 22 19 35 23 12 4 22 12 22 17 0 5 4 9 9 9
12 0 86 73 83 83 -1 4 2 7 8 7 5 0 10 6 10 13 0 8 9 22 19 31 10 9 21 29 24
44 3 15 11 52 17 82 15 67 6 187 -15 210 -8 9 -15 21 -15 27 0 5 -9 18 -20 28
-11 10 -17 22 -14 27 3 4 2 7 -3 6 -4 -1 -28 9 -53 24 -92 54 -170 59 -260 16
-54 -26 -74 -48 -96 -106 -16 -40 -16 -46 -1 -77 10 -21 22 -32 34 -31 23 1
29 10 49 74 20 61 40 78 107 87 39 6 56 3 102 -19 49 -24 57 -33 86 -94 27
-58 31 -75 27 -127 -5 -60 -37 -147 -60 -161 -8 -5 -9 2 -4 27 18 81 22 147
10 163 -15 22 -37 20 -59 -4 -10 -11 -22 -17 -26 -14 -5 3 -9 -1 -9 -8 0 -17
-38 -41 -52 -32 -6 4 -8 3 -4 -4 3 -6 -10 -23 -31 -39 -21 -15 -46 -36 -57
-45 -22 -20 -102 -59 -169 -83 -59 -21 -127 -15 -188 18 -39 21 -129 114 -129
133 0 5 -9 26 -20 47 -11 20 -19 40 -18 44 1 5 -4 26 -12 48 -33 92 -13 329
36 433 22 47 27 34 9 -19 -20 -55 -26 -176 -14 -249 5 -30 11 -64 13 -75 4
-24 17 -58 51 -128 27 -59 46 -85 92 -132 18 -18 30 -35 27 -38 -3 -3 4 -8 16
-12 50 -16 54 24 19 220 -30 174 -30 336 0 420 12 33 23 67 25 76 4 17 44 78
76 119 52 65 79 94 83 90 3 -3 -6 -27 -18 -55 -37 -82 -45 -104 -48 -145 -2
-21 3 -25 29 -28 22 -2 38 5 62 28 17 16 35 30 38 30 4 0 28 19 55 43 61 54
77 67 84 67 3 0 18 11 33 25 15 14 37 28 50 31 12 4 22 9 22 13 0 4 17 13 38
20 20 7 51 19 67 26 44 20 200 38 259 31 28 -4 58 -7 66 -7 25 -2 143 -30 154
-37 6 -3 20 -7 32 -8 13 -1 38 -9 56 -17 36 -16 70 -30 78 -31 15 -3 49 -34
43 -39 -3 -4 2 -7 13 -7 16 0 122 -100 159 -151 6 -8 33 -44 60 -80 109 -146
175 -301 210 -494 23 -129 18 -146 -24 -72 -45 80 -103 162 -143 200 -22 21
-36 43 -32 49 5 7 3 8 -6 3 -7 -4 -15 -3 -19 2 -3 5 -28 25 -56 44 -27 18 -54
39 -60 45 -38 41 -207 114 -269 116 -72 2 -69 5 -62 -68 8 -82 34 -151 76
-204 17 -22 29 -40 26 -40 -9 0 42 -47 58 -53 9 -4 16 -13 16 -22 0 -8 5 -15
10 -15 18 0 80 -45 80 -58 0 -7 11 -17 24 -22 21 -8 89 -71 83 -77 -2 -1 -20
3 -42 8 -101 25 -161 30 -187 17 -13 -6 -16 -16 -11 -41 3 -17 12 -39 19 -48
8 -8 14 -21 14 -27 0 -16 119 -130 143 -138 9 -3 17 -9 17 -14 0 -4 13 -21 29
-36 17 -15 28 -31 25 -36 -3 -4 0 -8 6 -8 14 0 41 -26 34 -33 -3 -2 13 -26 36
-51 22 -26 40 -53 40 -60 0 -8 7 -19 15 -26 8 -7 17 -27 21 -46 3 -19 10 -32
14 -29 8 5 59 -95 66 -129 2 -10 8 -24 13 -30 6 -7 12 -21 14 -32 2 -10 8 -28
14 -39 20 -38 42 -150 47 -250 6 -100 35 -214 62 -246 8 -8 14 -21 14 -27 0
-11 24 -39 103 -120 23 -23 42 -48 42 -55 0 -7 10 -11 23 -9 12 2 22 -1 22 -6
0 -4 20 -19 45 -31 25 -12 43 -26 40 -31 -3 -4 1 -7 8 -7 20 1 77 -24 77 -35
0 -5 4 -7 9 -4 4 3 33 -3 64 -14 31 -11 64 -20 72 -20 9 0 14 -4 11 -8 -3 -5
66 -8 152 -7 140 2 167 5 247 30 50 15 106 31 125 35 19 4 31 8 25 9 -5 1 10
12 35 24 86 45 125 69 134 84 4 8 17 22 27 31 10 9 19 22 19 29 0 7 4 13 8 13
5 0 8 10 7 22 -3 36 -62 33 -97 -4 -16 -15 -28 -25 -28 -22 0 4 -8 -4 -17 -15
-31 -38 -171 -60 -266 -42 -60 11 -157 50 -157 63 0 5 -7 8 -16 8 -16 0 -125
97 -121 109 1 3 -15 31 -34 62 -20 30 -42 72 -50 92 -7 21 -20 37 -29 37 -25
0 -97 -24 -98 -33 -1 -4 -4 -22 -7 -40 -3 -17 -7 -44 -9 -60 -4 -44 -12 -41
-39 20 -32 72 -46 128 -55 218 l-7 70 -49 1 c-31 1 -44 -1 -35 -7 11 -6 6 -11
-17 -19 -82 -29 -93 -263 -18 -382 33 -52 25 -58 -17 -14 -63 66 -76 87 -108
186 -27 79 -29 192 -6 281 18 68 68 164 93 179 10 5 13 10 8 10 -5 0 5 12 22
28 49 44 62 53 62 45 0 -4 6 1 12 10 22 28 178 58 216 41 9 -4 28 -9 41 -10
14 -2 37 -12 53 -24 15 -11 31 -20 36 -20 14 0 51 -44 73 -86 27 -53 28 -120
0 -178 -13 -29 -26 -44 -33 -40 -7 4 -8 3 -4 -4 10 -16 -46 -42 -92 -42 -64 0
-108 61 -83 116 21 47 15 64 -24 64 -45 0 -70 -35 -67 -97 7 -170 215 -230
344 -98 68 70 81 214 28 319 -41 82 -57 99 -133 141 -58 32 -77 37 -157 42
-147 10 -252 -29 -332 -121 -14 -17 -36 -42 -47 -55 -12 -13 -22 -22 -22 -20
-11 34 -18 198 -19 484 -2 263 -10 360 -43 518 -8 37 -12 67 -8 67 3 0 1 4 -5
8 -5 4 -18 29 -28 56 -10 27 -33 74 -51 105 -18 31 -45 77 -59 103 -14 25 -36
57 -48 70 -13 14 -37 42 -55 64 -65 80 -240 244 -261 244 -4 0 -20 14 -37 30
-16 17 -42 42 -57 57 -16 14 -28 30 -28 35 0 5 -11 21 -24 35 -13 14 -30 37
-37 52 -7 14 -18 33 -24 41 -26 36 -50 128 -50 195 0 54 6 82 24 120 23 47 66
94 94 99 6 2 20 6 30 11 24 10 83 -8 79 -24 -1 -7 2 -10 6 -7 5 3 16 -2 25
-12 14 -15 16 -38 8 -84 0 -3 -17 -16 -36 -28 -41 -25 -46 -57 -14 -85 21 -20
70 -24 123 -12 89 20 145 181 100 283 -9 22 -16 45 -15 53 1 7 -2 10 -8 7 -5
-4 -16 2 -23 13 -7 10 -40 33 -73 50 -64 33 -158 47 -225 32z"/>
<path d="M9291 5474 c-43 -16 -103 -51 -109 -67 -2 -4 -7 -5 -11 -3 -4 3 -8
-5 -8 -16 -1 -11 -9 -29 -19 -39 -22 -24 -30 -134 -14 -184 7 -21 21 -48 32
-60 11 -13 20 -27 21 -32 1 -11 75 -43 101 -43 30 0 83 35 91 59 7 23 -2 35
-48 64 -26 17 -28 23 -23 60 3 23 5 43 5 45 1 1 8 2 17 2 8 0 12 5 9 10 -10
16 46 32 89 24 27 -4 51 -18 77 -45 21 -22 35 -39 32 -39 -4 0 3 -10 15 -23
55 -58 34 -216 -45 -352 -45 -77 -141 -187 -155 -179 -4 3 -8 1 -8 -5 0 -14
-52 -61 -61 -56 -4 3 -9 -2 -13 -10 -3 -8 -12 -12 -21 -9 -11 5 -14 2 -9 -10
3 -9 1 -16 -5 -16 -9 0 -63 -45 -110 -91 -27 -26 -58 -66 -93 -117 -21 -30
-39 -47 -48 -44 -8 3 -12 1 -8 -2 6 -7 -41 -103 -66 -136 -15 -19 -53 -98 -61
-128 -4 -12 -10 -20 -15 -17 -5 3 -8 -3 -8 -12 0 -10 -9 -54 -21 -98 -33 -126
-39 -198 -41 -530 -1 -170 -3 -323 -5 -340 -2 -16 -3 -53 -4 -82 -1 -57 -17
-64 -41 -18 -7 13 -18 21 -23 18 -6 -4 -8 0 -4 11 4 9 3 15 -2 12 -5 -3 -23
11 -40 31 -17 20 -31 33 -31 29 0 -3 -17 4 -37 17 -87 55 -269 63 -355 16 -10
-5 -25 -9 -33 -9 -8 0 -15 -4 -15 -10 0 -5 -8 -10 -17 -10 -25 -1 -57 -29 -71
-64 -7 -16 -16 -26 -19 -22 -7 7 -28 -45 -45 -109 -22 -87 15 -211 81 -273 75
-70 247 -58 287 20 8 16 18 27 22 24 13 -8 14 124 1 140 -6 8 -8 14 -3 14 5 0
2 5 -6 10 -16 10 -73 14 -82 5 -3 -3 0 -26 7 -52 20 -79 5 -103 -80 -127 -20
-6 -90 24 -84 36 2 3 -8 16 -23 27 -25 20 -37 50 -44 111 -4 32 14 100 26 100
6 0 10 6 10 14 0 22 61 78 77 72 8 -3 11 -1 8 4 -7 12 20 23 90 39 53 12 100
10 153 -7 18 -6 33 -10 35 -10 1 1 21 -9 43 -20 51 -26 107 -80 98 -94 -4 -6
-2 -8 3 -5 23 14 63 -59 98 -177 21 -69 17 -215 -8 -284 -29 -84 -135 -232
-145 -203 -2 6 11 32 30 58 32 47 32 50 33 158 0 135 -17 180 -80 214 -49 26
-85 28 -85 4 -3 -115 -28 -225 -61 -266 -10 -14 -19 -32 -19 -40 0 -9 -4 -18
-8 -21 -4 -2 -7 7 -6 22 1 33 -16 92 -28 92 -4 0 -8 6 -8 14 0 17 -60 39 -82
31 -8 -3 -34 -44 -59 -91 -27 -52 -64 -106 -96 -137 -65 -65 -83 -80 -83 -70
0 4 -6 0 -14 -9 -28 -37 -115 -61 -226 -62 -119 -1 -166 14 -234 76 -28 25
-47 35 -70 34 -28 -1 -31 -4 -30 -33 2 -23 13 -44 39 -70 35 -35 58 -50 143
-94 23 -13 42 -26 42 -31 0 -4 9 -8 20 -8 11 0 46 -9 79 -20 58 -21 69 -23
148 -39 65 -13 212 -13 273 -1 64 13 223 62 230 71 8 9 84 47 92 45 4 0 13 7
20 17 7 10 23 19 35 20 12 0 20 4 18 8 -3 3 15 25 38 47 55 53 88 91 106 122
26 47 63 125 66 140 5 23 14 109 20 182 8 87 11 103 36 184 12 38 20 70 18 70
-2 1 4 11 14 21 9 11 14 23 10 26 -3 4 -1 7 6 7 7 0 10 4 7 9 -7 11 112 251
124 251 5 0 11 8 15 19 3 10 13 28 23 40 9 11 28 36 42 56 14 19 33 37 43 41
9 3 15 9 12 14 -3 5 13 19 34 31 22 12 38 25 36 29 -2 3 16 23 41 44 74 63
126 171 92 192 -15 10 -118 12 -118 3 0 -4 -17 -9 -37 -13 -21 -3 -49 -9 -63
-12 -23 -5 -22 -3 11 28 19 18 55 49 78 68 24 19 50 41 57 48 7 6 17 12 22 12
6 0 13 7 16 16 3 8 11 12 16 9 6 -4 9 -1 8 7 -2 8 4 12 17 10 11 -2 17 -1 13
3 -11 12 11 46 25 39 7 -4 9 -4 5 1 -7 7 38 76 55 83 4 2 5 7 2 12 -2 4 3 22
12 40 10 21 16 61 17 109 1 75 1 76 -24 77 -31 1 -113 -22 -160 -44 -19 -9
-38 -15 -42 -14 -5 1 -8 -3 -8 -8 0 -6 -6 -10 -14 -10 -7 0 -25 -9 -38 -20
-14 -10 -28 -17 -31 -14 -3 3 -12 -3 -19 -15 -7 -12 -21 -21 -31 -21 -10 0
-15 -4 -12 -10 3 -5 -3 -10 -14 -10 -12 0 -20 -5 -18 -12 1 -6 -8 -17 -20 -23
-13 -7 -20 -15 -17 -18 4 -3 -5 -12 -20 -18 -14 -7 -26 -18 -26 -25 0 -7 -9
-16 -21 -19 -11 -4 -18 -9 -15 -12 3 -3 -9 -21 -27 -39 -48 -50 -54 -59 -72
-95 -33 -72 -49 -91 -47 -59 1 13 14 115 18 133 7 37 25 87 32 87 4 0 8 16 9
35 1 19 8 47 15 62 8 15 37 73 64 128 27 55 64 119 81 142 18 24 31 43 28 43
-3 0 3 8 13 18 9 10 31 35 48 55 17 20 35 33 39 29 5 -4 5 -2 2 4 -9 16 19 38
35 28 7 -4 10 -3 5 1 -9 10 31 55 50 55 7 0 13 4 13 9 0 13 69 54 89 54 9 0
19 4 22 9 4 6 18 11 33 11 14 1 26 5 26 8 0 7 8 9 125 33 132 26 395 16 395
-16 0 -4 11 -8 24 -8 29 0 113 -44 145 -76 13 -13 30 -24 37 -24 7 0 32 -18
55 -40 23 -22 46 -40 51 -40 5 0 25 -17 44 -37 23 -25 51 -41 80 -49 l44 -11
0 32 c0 32 -21 105 -47 163 -16 37 -13 51 7 27 7 -8 9 -15 6 -15 -4 0 5 -12
19 -26 14 -14 23 -30 19 -35 -3 -5 0 -8 7 -7 7 2 23 -15 35 -37 52 -93 74
-140 74 -160 0 -12 6 -27 13 -33 16 -17 17 -269 1 -303 -7 -13 -19 -67 -28
-119 -27 -161 -25 -183 16 -172 24 6 78 56 78 72 0 6 6 10 13 10 18 0 94 164
112 241 21 95 25 184 9 259 -8 36 -12 70 -10 75 3 6 5 3 5 -5 1 -8 8 -28 17
-45 24 -46 44 -158 44 -243 0 -95 -21 -184 -59 -260 -32 -63 -102 -142 -127
-142 -8 0 -13 -4 -9 -9 6 -11 -44 -29 -104 -36 -86 -10 -209 46 -344 158 -59
49 -108 97 -100 97 5 0 0 5 -10 11 -23 13 -34 5 -45 -35 -14 -49 1 -158 27
-201 3 -6 -6 3 -20 19 -53 60 -77 184 -49 251 7 17 13 33 12 37 -2 11 70 84
97 98 32 17 110 17 150 1 17 -8 29 -16 27 -19 -3 -2 1 -11 9 -18 7 -7 16 -32
20 -54 4 -22 11 -40 16 -40 6 0 8 -4 5 -9 -3 -5 6 -8 19 -8 43 0 51 36 34 144
-1 7 -6 10 -11 7 -4 -3 -8 0 -8 5 0 6 -18 24 -40 40 -21 15 -38 30 -35 32 4 5
-40 8 -117 10 -100 1 -190 -53 -239 -144 -29 -52 -36 -197 -14 -270 25 -85 99
-174 185 -225 25 -14 47 -29 50 -33 14 -19 285 -35 296 -17 3 4 18 8 35 8 16
0 29 4 29 9 0 5 21 15 46 22 26 8 49 20 51 27 4 10 9 10 19 1 8 -7 17 -9 21
-5 3 3 1 6 -6 6 -14 0 28 50 43 50 8 0 65 58 112 114 37 43 92 168 104 236 36
197 -14 430 -132 620 -28 45 -203 221 -212 213 -3 -3 -6 -1 -6 5 0 7 -16 18
-36 27 -21 8 -33 19 -29 25 4 6 1 10 -6 9 -14 -2 -28 3 -109 39 -179 79 -396
89 -625 28 -155 -41 -170 -39 -120 20 14 16 25 34 25 41 0 6 7 18 14 26 8 8
25 45 37 82 19 58 21 83 16 169 -5 104 -22 151 -82 231 -71 94 -243 141 -364
99z"/>
<path d="M1986 4081 c-4 -7 -5 -15 -2 -18 9 -9 19 4 14 18 -4 11 -6 11 -12 0z"/>
<path d="M10760 3470 c0 -5 5 -10 10 -10 6 0 10 5 10 10 0 6 -4 10 -10 10 -5
0 -10 -4 -10 -10z"/>
<path d="M6854 2095 c-15 -17 -4 -53 22 -74 13 -10 24 -24 24 -30 0 -6 7 -11
15 -11 17 0 54 -55 79 -120 29 -73 21 -276 -13 -355 -5 -11 -14 -39 -22 -63
-21 -72 -37 -72 -32 0 4 55 1 80 -18 158 -2 8 -6 17 -10 20 -18 17 -49 82 -43
91 5 8 3 9 -5 5 -7 -5 -18 -2 -24 6 -7 8 -31 20 -54 28 -58 18 -156 -5 -161
-38 -3 -22 42 -127 59 -138 5 -3 20 -29 33 -59 34 -73 50 -201 36 -285 -6 -36
-11 -71 -12 -77 -1 -7 -8 -13 -15 -13 -8 0 -12 -4 -8 -9 5 -10 -41 -51 -57
-51 -6 0 -23 -9 -39 -20 -23 -17 -129 -60 -146 -60 -3 0 12 18 33 40 20 21 42
36 47 33 6 -3 7 -1 3 5 -4 6 -2 30 4 53 12 45 7 89 -11 89 -6 0 -28 -13 -49
-30 -21 -16 -41 -30 -46 -30 -4 0 -19 -11 -33 -24 -39 -37 -120 -76 -157 -76
-18 0 -34 -5 -36 -11 -6 -17 -149 -23 -209 -9 -71 17 -157 69 -221 134 -66 67
-118 134 -118 152 0 8 -4 14 -8 14 -27 0 -45 187 -23 229 7 11 9 21 6 21 -9 0
26 64 45 82 10 9 21 14 25 10 4 -4 5 -1 3 7 -5 22 69 54 120 52 48 -1 102 -20
102 -34 0 -5 4 -6 9 -3 5 3 21 -15 36 -40 22 -37 26 -55 23 -89 -10 -83 -52
-110 -146 -93 -47 9 -92 11 -99 5 -2 -2 -5 -18 -7 -35 -3 -27 1 -33 32 -48 45
-21 175 -13 203 12 10 9 23 13 30 8 8 -4 10 -3 5 4 -6 10 4 16 24 14 3 0 7 9
7 20 1 12 8 25 14 29 8 4 15 35 17 72 11 176 -139 299 -312 254 -30 -8 -58
-12 -62 -8 -4 3 -4 1 -1 -5 3 -6 -7 -18 -22 -27 -73 -43 -143 -143 -166 -240
-11 -43 -21 -40 -40 10 -21 54 -94 183 -103 183 -4 0 -23 15 -42 33 -52 49
-116 71 -193 64 -34 -2 -75 -12 -91 -20 -16 -9 -34 -13 -39 -10 -6 3 -7 2 -4
-4 4 -5 -10 -25 -30 -42 -48 -43 -75 -138 -60 -210 5 -25 13 -50 18 -56 5 -5
9 -18 9 -29 0 -10 3 -16 6 -13 4 3 18 -2 31 -13 13 -10 47 -26 75 -36 44 -14
58 -15 106 -4 31 7 62 19 70 26 7 8 11 14 8 14 -3 0 -1 11 4 25 13 35 -6 41
-75 26 -55 -12 -129 -6 -119 10 3 5 -1 9 -9 9 -8 0 -22 11 -31 25 -58 88 32
215 155 217 53 1 103 -17 93 -34 -4 -7 -3 -8 4 -4 27 17 96 -94 111 -177 13
-77 -17 -182 -79 -272 -49 -71 -141 -155 -170 -155 -6 0 -18 -7 -26 -15 -36
-36 -201 -64 -271 -46 -24 6 -62 16 -84 21 -66 17 -164 74 -153 91 3 5 -1 6
-8 4 -8 -3 -25 5 -38 17 -14 13 -27 23 -30 23 -3 1 -14 6 -26 12 -28 16 -44 0
-44 -45 0 -43 13 -67 64 -121 22 -24 34 -42 26 -39 -8 3 -39 13 -67 22 -29 10
-53 22 -53 27 0 5 -6 9 -14 9 -18 0 -73 29 -95 50 -9 8 -22 29 -30 45 -17 38
-23 194 -10 260 11 51 96 235 109 235 12 0 21 62 10 75 -19 23 -111 38 -157
26 -49 -13 -106 -76 -118 -128 -3 -18 -10 -33 -13 -33 -8 0 -8 -7 -12 -132 -1
-49 -4 -88 -6 -88 -2 0 -15 24 -28 53 -58 121 -79 285 -52 398 15 64 67 159
87 159 6 0 7 5 4 10 -3 6 -1 10 6 10 19 0 60 53 57 75 -4 29 -41 30 -91 5 -36
-19 -71 -53 -72 -70 0 -3 -5 -12 -10 -20 -75 -119 -95 -307 -49 -452 13 -41
-15 -11 -78 83 -34 52 -80 111 -102 130 -21 19 -46 41 -56 49 -34 30 -80 60
-93 60 -7 0 -17 4 -22 8 -21 18 -102 34 -172 33 -125 -1 -216 -42 -314 -140
-83 -84 -121 -202 -107 -334 8 -75 33 -136 84 -203 19 -24 34 -49 34 -55 0 -5
4 -8 9 -4 6 3 13 -1 18 -9 4 -8 35 -28 68 -45 104 -52 251 -56 341 -9 35 19
89 94 74 103 -6 4 -50 3 -99 0 -49 -4 -95 -4 -103 1 -7 5 -19 9 -27 11 -44 6
-64 17 -110 59 -29 26 -49 49 -46 52 3 3 0 11 -6 19 -6 7 -8 13 -3 13 5 0 3 4
-4 9 -15 9 -30 131 -16 131 5 0 9 16 10 35 0 21 8 41 20 52 11 10 23 26 27 35
10 29 107 68 156 63 60 -5 131 -34 166 -67 17 -15 34 -28 38 -28 10 0 66 -58
61 -63 -2 -2 7 -10 21 -17 13 -7 27 -21 30 -32 4 -10 12 -24 20 -31 14 -14 97
-125 125 -167 8 -12 21 -29 28 -36 7 -8 10 -14 5 -15 -4 0 2 -4 15 -10 13 -5
21 -13 17 -18 -3 -6 5 -15 17 -22 12 -7 31 -23 41 -36 10 -12 23 -23 28 -23 5
0 33 -17 62 -38 52 -37 176 -102 196 -102 6 0 11 -5 11 -11 0 -5 4 -8 8 -5 4
2 39 -4 77 -15 39 -11 90 -22 115 -25 25 -2 54 -6 65 -9 11 -2 75 -4 142 -4
104 -1 122 -3 117 -16 -4 -8 -13 -15 -20 -15 -8 0 -19 -12 -25 -27 -6 -16 -18
-37 -28 -48 -54 -61 -69 -214 -29 -308 12 -29 30 -59 41 -67 11 -8 27 -22 37
-31 22 -21 86 -43 100 -34 13 8 13 49 0 95 -21 76 -20 140 3 186 11 24 29 46
39 50 10 3 18 12 18 20 0 8 4 14 9 14 5 0 28 16 51 35 23 19 48 35 57 35 8 0
12 4 9 9 -5 8 29 25 47 22 4 -1 7 3 7 8 0 5 14 16 31 25 28 14 30 14 25 0 -3
-9 -6 -18 -6 -20 0 -2 -7 -4 -15 -4 -8 0 -12 -6 -9 -14 3 -8 -6 -25 -20 -39
-27 -28 -66 -94 -66 -115 0 -7 11 -17 25 -22 26 -10 115 -10 115 0 0 3 19 16
43 29 78 43 185 208 223 341 l17 62 19 -53 c41 -116 73 -193 86 -205 7 -8 10
-14 6 -14 -4 0 4 -11 17 -24 13 -13 36 -37 51 -54 14 -17 37 -36 50 -43 12 -6
26 -17 30 -22 3 -6 43 -12 87 -15 76 -4 81 -3 81 16 0 11 -17 46 -37 78 -21
32 -37 61 -36 66 2 4 -4 8 -13 8 -8 0 -13 4 -10 9 4 5 0 11 -6 14 -7 2 -10 8
-6 12 10 11 63 -11 60 -24 -1 -7 2 -10 7 -7 5 4 15 0 23 -7 7 -7 27 -20 45
-27 17 -8 29 -18 27 -22 -3 -4 0 -8 5 -8 28 0 99 -74 123 -128 20 -44 18 -104
-5 -162 -14 -36 -18 -98 -7 -105 5 -3 29 -1 52 6 24 6 48 12 55 12 7 0 10 3 8
7 -2 3 8 19 23 35 91 97 96 267 11 392 -18 27 -41 58 -52 71 l-20 22 124 1
c68 0 133 2 144 5 11 2 38 4 60 5 22 1 45 5 50 9 6 4 51 17 100 30 85 22 180
65 216 96 8 8 20 14 26 14 5 0 23 11 39 25 16 14 33 25 38 25 13 0 165 161
171 181 4 11 10 19 15 19 5 0 12 9 15 20 4 11 11 17 17 14 7 -4 8 -2 4 5 -4 6
8 30 28 55 20 23 36 46 36 49 0 4 28 34 63 67 34 33 76 74 93 90 16 17 34 30
40 30 5 0 23 7 39 16 49 26 132 25 193 -3 28 -14 52 -28 52 -32 0 -4 11 -21
24 -36 86 -100 44 -273 -85 -356 -53 -34 -55 -34 -169 -35 -153 -1 -148 1
-124 -26 11 -13 26 -36 32 -52 7 -16 15 -26 18 -23 3 3 25 -4 47 -16 57 -30
153 -32 227 -6 30 11 61 21 68 21 6 1 12 5 12 10 0 4 6 8 14 8 8 0 39 24 70
54 30 30 57 52 60 48 3 -3 6 1 6 9 0 9 8 24 18 35 16 18 43 68 47 89 25 115
26 127 16 180 -13 72 -57 171 -93 210 -15 17 -28 33 -28 38 0 4 -4 7 -10 7 -5
0 -19 8 -30 18 -11 9 -28 24 -38 32 -9 8 -36 22 -60 29 -23 8 -38 17 -32 21 6
3 -37 7 -96 8 -86 2 -119 -2 -177 -20 -40 -13 -78 -29 -85 -36 -8 -6 -18 -10
-23 -7 -5 4 -9 1 -9 -4 0 -6 -7 -11 -15 -11 -8 0 -22 -11 -31 -25 -9 -14 -20
-22 -25 -19 -5 3 -9 1 -9 -5 0 -5 -17 -27 -37 -49 -50 -53 -65 -72 -57 -72 3
0 -5 -15 -20 -34 -14 -19 -26 -38 -26 -41 0 -11 -42 -67 -46 -62 -3 2 0 26 6
53 17 80 18 204 2 274 -17 78 -71 183 -118 226 -34 33 -93 48 -110 29z"/>
<path d="M5160 1670 c0 -5 5 -10 10 -10 6 0 10 5 10 10 0 6 -4 10 -10 10 -5 0
-10 -4 -10 -10z"/>
</g>
</svg>
